<svg xmlns="http://www.w3.org/2000/svg" width="3072" height="3072">
    <path d="M1770 295.472c-41.783 4.124-73.224 18.41-100 45.439-15.046 15.187-25.697 32.826-29.942 49.589-3.199 12.627-4.053 31.154-4.056 87.953l-.002 52.953-4.088-3.953c-5.602-5.416-38.406-41.454-45.016-49.453-2.954-3.575-9.356-10.775-14.226-16-11.194-12.01-35.719-41.23-42.594-50.75-2.88-3.988-5.612-7.25-6.07-7.25-1.096 0-5.021 3.94-19.486 19.562-15.673 16.927-36.257 38.045-91.063 93.424-43.803 44.261-69.386 70.392-74.909 76.514-4.796 5.316-45.943 47.799-88.103 90.966-22.581 23.118-49.568 51.034-59.972 62.034-10.405 11-38.542 39.8-62.527 64-42.021 42.397-79.067 80.576-115.946 119.493-9.625 10.156-23.143 24.325-30.04 31.487-6.897 7.161-18.588 19.32-25.98 27.02-31.182 32.48-83.216 85.754-121.599 124.496-22.615 22.827-51.851 52.529-64.967 66.004-39.926 41.017-66.142 67.002-67.563 66.967-.832-.021-.486-.755.899-1.911 1.237-1.032 2.25-2.029 2.25-2.216 0-.187-6.638-.34-14.75-.34s-38.713-.398-68-.884c-40.883-.679-53.25-.61-53.25.301 0 .652-1.855 5.543-4.122 10.87-7.38 17.339-12.115 42.124-10.621 55.595 1.639 14.779 10.025 34.503 22.688 53.36 13.014 19.38 23.553 28.724 48.58 43.072 11.386 6.528 35.387 17.434 37.003 16.814.671-.258 2.934-3.992 5.028-8.298 2.095-4.307 5.68-10.755 7.966-14.33 6.065-9.48 28.416-33.965 41.47-45.429 25.461-22.36 59.206-54.785 73.656-70.777 6.355-7.033 12.028-12.494 12.608-12.136.63.39.756.17.312-.547-.407-.659-.196-1.854.468-2.655 1.732-2.086 3.483-1.806 1.836.294-1.211 1.545-1.187 1.606.206.52.869-.677 2.669-1.396 4-1.6 1.332-.203 2.197-.774 1.922-1.27-.275-.495-.725-.821-1-.724-.275.097-1.288.482-2.25.857-3.449 1.342-1.613-1.212 7.126-9.909 6.486-6.456 9.087-8.47 9.66-7.48.432.746.44 1.046.018.666-1.152-1.036-3.372 1.459-2.834 3.185.416 1.336.348 1.337-.61.005-1.018-1.415-1.179-1.316-1.485.911-.069.501-2.038 2.786-4.375 5.077-4.233 4.149-5.516 6.712-2.848 5.688 2.08-.798 2.513.134 1.576 3.399-.498 1.738-.461 2.925.092 2.925.511 0 .93-.618.93-1.373 0-.885 1.686-1.589 4.75-1.982 2.612-.335 6.325-.894 8.25-1.243 2.873-.521 3.276-.399 2.25.682-1.568 1.651-1.604 2.916-.083 2.916.641 0 .863-.304.492-.675-.371-.371.566-1.493 2.083-2.493 2.57-1.695 2.61-1.819.575-1.825-1.297-.004-2.439-.815-2.814-1.998-.822-2.59.116-4.009 2.65-4.009 1.193 0 2.25-.827 2.557-2 .619-2.368 1.846-2.599 2.652-.5.72 1.876 6.638 2.055 6.638.2 0-.715-.54-1.84-1.2-2.5-.933-.933-.809-1.2.559-1.2.967 0 1.5.419 1.184.931-.317.512-.118 1.213.441 1.559.559.345 1.016-.023 1.016-.82 0-.881 1.467-1.723 3.748-2.15 2.061-.387 4.052-1.196 4.423-1.797.48-.776 1.109-.736 2.164.14 1.007.836 1.696.896 2.135.186.356-.577.171-1.049-.411-1.049-1.942 0-1.091-1.665 1.441-2.818 1.927-.878 2.507-.858 2.532.089.019.725.576.512 1.36-.521.731-.963 2.156-1.75 3.168-1.75 1.431 0 1.573-.267.64-1.2-.933-.933-1.467-.933-2.4 0-.66.66-1.56 1.2-2 1.2-1.332 0-.899-2.044.791-3.734 1.253-1.253 1.758-1.319 2.381-.311.629 1.017 1.53 1.035 4.409.084 4.779-1.577 4.61-2.453-.321-1.665-2.395.383-4.199.211-4.601-.44-.364-.589-1.276-.834-2.028-.546-.752.289-1.633.094-1.958-.432-.325-.526-1.989-.956-3.699-.956-1.709 0-2.806-.301-2.439-.669 1.219-1.218 165.321.37 170.321 1.649 1.822.466 3.555.409 4.098-.134 1.146-1.146 463.709-.717 464.857.432.428.428-.434 3.25-1.916 6.272-3.257 6.64-3.254 6.61-.445 5.559 1.237-.463 164.475-1.13 362.75-1.482 198.275-.353 366.028-.93 372.784-1.282l12.284-.641-.284 11.398-.284 11.398-315.5.211c-197.912.132-329.29.614-352.5 1.294-20.35.596-48.322 1.356-62.161 1.69l-25.16.607-.453-2.401c-.25-1.322-.515-.293-.59 2.29-.075 2.58-.542 4.942-1.038 5.249-1.291.797-514.973.818-604.598.024-43.206-.383-76.696-.286-79 .23l-4 .894-.272 19.894c-.149 10.942-.045 19.668.232 19.391.277-.277.582-7.449.679-15.938.096-8.489.483-14.085.86-12.435.377 1.65.476 5.078.22 7.618-.258 2.555.042 5.459.671 6.5.96 1.588 1.035 1.414.483-1.118-.36-1.65-.29-2.662.155-2.248 1.182 1.099 4.432-2.193 3.798-3.846-.326-.849.097-1.406 1.067-1.406.884 0 1.607-.661 1.607-1.469 0-.894-.586-1.243-1.5-.893-.974.374-1.5-.025-1.5-1.138 0-1.117.525-1.512 1.509-1.135.885.34 2.018-.237 2.741-1.393.677-1.085 1.798-1.972 2.491-1.972.692 0 1.259-.45 1.259-1s1.602-1 3.559-1 3.309-.405 3.002-.901c-.306-.495-1.933-.805-3.616-.688-1.683.116-3.286-.153-3.562-.6-.275-.446-.362-.82-.192-.831.17-.011 19.659-.289 43.309-.617 28.035-.39 56.05-.135 80.5.73 20.625.731 40.474 1.346 44.109 1.368l6.608.039-9.07 10c-14.559 16.052-15.006 16.85-1.807 3.228 6.806-7.025 13.339-13.325 14.517-14 1.678-.961 54.925-1.228 245.143-1.228 133.65 0 254.659-.411 268.909-.913l25.909-.912-.645 2.412c-.355 1.327-.652 13.144-.659 26.26l-.014 23.846-242.25-.6c-133.237-.329-264.975-.858-292.75-1.175-78.84-.898-193.747-.997-194.58-.168a1.063 1.063 0 0 0-.004 1.5c.412.412 31.137 1.063 68.279 1.446 37.141.382 67.768.933 68.059 1.224.29.291-2.601 3.803-6.426 7.804-3.826 4.002-9.581 10.201-12.79 13.776-3.209 3.575.909-.414 9.151-8.864l14.986-15.363 4.913.571c7.869.915 281.962 2.769 439.161 2.971l144.249.185.001 25.668c.001 14.118.284 26.406.63 27.308.583 1.518-25.669 1.626-353.25 1.46-194.633-.099-359.167.161-365.629.578-11.091.715-11.75.878-11.75 2.891v2.133l34.5-.273c26.384-.209 34.5.01 34.5.931 0 .936.267.937 1.2.004.66-.66 1.673-1.193 2.25-1.185.578.009.375.452-.45.985-1.207.78-1.049.972.809.985 1.288.008 2.036-.427 1.691-.985-.342-.554.388-1 1.637-1 2.192 0 2.172.091-.722 3.25-6.258 6.832-6.45 7.939-.259 1.5l6.489-6.75h649.388l-.266 25.998-.267 25.997-187.5.753c-215.575.865-252.577.897-401.35.355-65.495-.238-109.109-.03-109.5.522-.358.506-4.7 4.138-9.65 8.072-4.95 3.934-11.7 9.964-15 13.4-4.926 5.129-4.3 4.705 3.5-2.371 5.225-4.74 11.525-10.105 14-11.922l4.5-3.304 43 .162c23.65.089 184.975.594 358.5 1.123 293.287.894 472.007 2.263 491.75 3.766l8.25.629V1809.577l-362.25-.171c-199.238-.094-397.125-.508-439.75-.92-76.618-.741-127-.096-127 1.626 0 .51 39.308.946 92.25 1.023 50.737.075 101.25.412 112.25.75l20 .615.5 3.489c.357 2.492 1.071 3.583 2.5 3.822 1.1.183 6.95 1.696 13 3.361l11 3.029 48.915-.144c26.904-.079 49.352-.413 49.885-.743 1.854-1.145 379.18-2.168 380.317-1.03.164.164.358 8.38.429 18.257l.13 17.959-270.338-.5c-367.607-.68-458.541-.63-459.422.25a1.065 1.065 0 0 0 0 1.5c.412.412 21.299.852 46.416.976 25.118.125 90.893.445 146.168.712 55.275.268 198.642.483 318.593.478l218.092-.008.607 19.764c.333 10.87.366 20.003.073 20.296-.292.293-76.432.31-169.198.038-194.196-.568-198.825-.566-333.982.124l-101.316.518-1.46-2.824c-1.857-3.59-5.134-3.767-5.998-.324l-.628 2.5h-58.891c-51.682 0-58.892.184-58.892 1.5s7.153 1.5 58.374 1.5h58.375l-1.799 9.75c-.99 5.362-2.959 14.786-4.375 20.94-1.416 6.155-2.575 11.33-2.575 11.5 0 .171-24.3.186-54 .035-47.85-.244-54-.102-54 1.25 0 1.348 6.208 1.525 53.398 1.525h53.398l-1.781 7.25c-2.344 9.542-6.015 29.044-6.015 31.952l.001 2.298-49.184-.287c-27.051-.157-49.877-.02-50.723.304-5.033 1.932 5.499 2.454 49.773 2.468l48.366.015-.582 2.75c-1.563 7.39-2.783 21.639-2.484 29.019l.333 8.236-30.59-.003c-36.329-.002-66.91.983-66.91 2.156 0 .463 21.284.842 47.297.842h47.298l-.419 6.575c-.356 5.587.917 22.379 2.394 31.585.416 2.592.243 2.689-6.822 3.819-3.986.637-8.373 1.58-9.748 2.094-2.337.875-2.304.904.5.446 14.048-2.298 13.519-2.4 33.404 6.427 17.43 7.737 26.018 12.5 28.855 16.001 2.278 2.811 33.831 47.391 38.966 55.053 9.44 14.084 15.271 23.97 21.668 36.737 8.199 16.363 9.604 19.813 9.622 23.635.012 2.387.245 2.773.985 1.628.723-1.119.953-.61.906 2l-.064 3.5-2.297-4.793c-1.591-3.317-2.48-4.318-2.89-3.25-.326.849-.165 1.543.357 1.543.523 0 .846 1.757.719 3.904-.127 2.147-.598 3.677-1.048 3.4-.449-.277-.568-.752-.265-1.055.303-.303-.23-1.195-1.184-1.982-1.637-1.35-1.633-1.398.068-.86 1.053.333 1.548.159 1.191-.418-.336-.544-1.208-.989-1.937-.989-.729 0-2.102-1.184-3.05-2.632-1.38-2.106-1.918-2.356-2.692-1.25-.738 1.056-1.085 1.09-1.469.145-.277-.68-1.391-2.255-2.476-3.5-1.22-1.4-.951-.573.705 2.167 1.473 2.437 3.311 6.037 4.084 8 1.274 3.236 1.262 3.388-.126 1.629-.843-1.068-1.539-2.418-1.547-3-.009-.583-.422-.417-.918.367-.694 1.096-1.561.318-3.735-3.348-7.809-13.166-20.139-27.562-33.9-39.578-2.204-1.925-7.159-6.425-11.011-10a1764.013 1764.013 0 0 0-12.962-11.896c-3.278-2.968-9.109-8.37-12.959-12.004-3.85-3.634-9.25-8.352-12-10.483-4.177-3.237-4.424-3.336-1.5-.6 61.987 58.003 71.778 68.547 81.307 87.564 6.141 12.256 11.424 25.835 10.773 27.691-.434 1.237-2.707-2.473-7.599-12.399-3.84-7.789-8.218-15.894-9.731-18.009-1.512-2.116-2.75-4.441-2.75-5.168 0-.727-1.379-2.643-3.064-4.257-1.926-1.846-2.815-2.287-2.393-1.187.369.961 1.038 1.748 1.486 1.748.647 0 3.099 5.663 3.464 8 .043.275.669 1.567 1.392 2.871.723 1.304.867 2.094.32 1.755-.548-.338-1.262.081-1.589.932-.34.885-.171 1.285.395.935.544-.336.989.316.989 1.448s.466 2.059 1.035 2.059c.707 0 .713.602.018 1.9-.769 1.438-.656 2.038.465 2.469.815.312 1.482 1.043 1.482 1.623 0 .58-1.152.299-2.56-.623-1.923-1.26-2.234-1.881-1.25-2.495.98-.611.369-1.761-2.423-4.562-3.023-3.032-3.975-3.502-5-2.469-1.025 1.031-.932 1.148.483.609 1.014-.386 1.75-.2 1.75.441 0 .609-.471 1.107-1.046 1.107-.575 0 .55 2.09 2.5 4.644 3.447 4.515 4.576 7.111 2.546 5.856-.55-.34-1-.041-1 .663 0 .705-.784.169-1.743-1.19-.958-1.36-1.746-2.713-1.75-3.005-.026-1.95-17.923-19.082-29.645-28.381-11.611-9.209-30.888-22.359-40.362-27.531-8.286-4.524-6.095-2.709 8.244 6.83 11.225 7.468 22.971 16.397 31.202 23.719 2.938 2.613 20.826 24.011 27.054 32.36 1.375 1.843 3.095 3.955 3.821 4.693.727.738 1.01 1.342.628 1.342s-.125.686.571 1.524 1.028 1.762.738 2.052c-.784.783-6.752-6.776-6.137-7.772.29-.469.157-.737-.297-.594-.453.142-3.207-2.275-6.12-5.371-4.47-4.751-9.204-7.927-9.204-6.174 0 1.122 3.062 3.415 3.883 2.907.494-.305 1.692.679 2.662 2.187l1.765 2.741-2.179-1.926c-1.67-1.477-2.453-1.652-3.355-.75-1.786 1.786-4.774 1.429-4.791-.574-.012-1.33-.217-1.432-.855-.426-.696 1.098-1.085 1.098-2.28 0-4.531-4.165-6.642-5.479-2.804-1.746 2.5 2.432 5.425 4.981 6.5 5.663 1.075.683-.184.256-2.796-.949-2.613-1.205-4.75-2.577-4.75-3.05 0-.473-.369-.632-.82-.353-.452.279-3.264-1.015-6.25-2.875-2.987-1.859-7.778-4.505-10.648-5.878-2.87-1.373-7.145-3.802-9.5-5.398-2.355-1.596-5.086-3.194-6.069-3.552-2.847-1.038-27.67-17.566-33.713-22.448-9.235-7.46-17.995-16.248-21.445-21.514-.982-1.498-2.273-2.724-2.87-2.724-.716 0-.677.408.115 1.2.66.66 1.2 2.02 1.2 3.021 0 1.002 1.089 2.318 2.421 2.925 1.466.668 2.206 1.661 1.877 2.519-.299.779-.123 1.286.39 1.126.514-.16 2.932 1.674 5.373 4.076 2.441 2.402 5.925 5.511 7.741 6.909 2.485 1.912 2.98 2.76 2 3.424-.929.63-.729.8.698.592 1.346-.197 1.891.198 1.667 1.208-.184.825-.012 1.178.381.785 1.081-1.08 4.609 1.151 3.825 2.42-.382.619-.229.824.35.466.568-.351 3 .826 5.405 2.616a282.742 282.742 0 0 0 8.733 6.196c2.399 1.619 3.861 3.11 3.25 3.313-1.642.548-1.349 2.204.389 2.204.825 0 1.514-.562 1.532-1.25.019-.741.592-.511 1.409.567.757.999 1.654 1.752 1.993 1.675 2.064-.475 2.295.795.436 2.388-1.686 1.443-2.043 1.514-1.583.315.327-.852-.029-2.066-.79-2.698-1.082-.898-1.662-.706-2.65.876-.969 1.552-1.579 1.764-2.61.908-1.026-.85-1.838-.624-3.413.95-2.978 2.978-1.531 4.465 2.435 2.504 1.783-.881 3.84-2.307 4.573-3.169 1.179-1.387 1.261-1.346.716.354-.346 1.078-.053 2.325.668 2.844.919.662.783.763-.475.358-2.661-.856-6.758 1.063-6.625 3.103.1 1.529.177 1.547.553.131.485-1.824 5.055-3.111 5.944-1.673.316.511 1.259.342 2.14-.384 1.408-1.162 1.438-1.043.284 1.122-1.103 2.07-1.05 2.596.366 3.632 1.448 1.058 1.465 1.284.137 1.793-1.043.4-1.721-.22-2.162-1.976-.491-1.956-.865-2.243-1.586-1.215-.736 1.049-1.056 1.07-1.451.095-.279-.687-.975-1.25-1.547-1.25-.627 0-.546.594.206 1.5.978 1.178.984 1.814.031 2.962-1.051 1.267-1.603 1.175-4.122-.688-1.6-1.182-2.909-2.793-2.909-3.579 0-.936-.689-1.248-2.001-.905-1.101.288-1.755.123-1.452-.365.302-.489-1.273-1.679-3.499-2.643-2.226-.965-4.048-2.349-4.048-3.077 0-.728.45-1.045 1-.705.55.34 1 .089 1-.558 0-.708-.974-.989-2.45-.707-1.53.293-2.652-.058-2.988-.935-.317-.826-.102-1.134.523-.747.585.361.484-.27-.223-1.403-1.173-1.877-2.229-2.014-2.448-.317-.048.367-.446 1.488-.886 2.491-.675 1.542-1.059 1.234-2.489-2l-1.691-3.824-.704 2.796c-.388 1.538-.44 3.225-.116 3.75.325.525.169.954-.347.954-1.241 0-3.311-2.537-2.627-3.221.295-.295-1.076-4.432-3.046-9.192-3.504-8.464-3.843-11.94-.93-9.522.77.639 1.106 1.637.747 2.218-.407.659-.026.816 1.011.418.915-.351 1.664-.22 1.664.291 0 1.523 4.223 4.988 5.281 4.334.538-.332.77.021.515.785-.254.764-.95 1.389-1.546 1.389-.596 0-1.352.268-1.68.596-.328.328.647.514 2.167.412 1.52-.101 3.888.195 5.263.66 2.212.746 2.302.689.785-.497-1.364-1.066-1.467-1.621-.5-2.708.957-1.076.823-1.068-.632.038-1.611 1.226-1.968 1.188-2.799-.298-.525-.937-1.576-1.703-2.336-1.703-.761 0-1.635-.794-1.943-1.763-.308-.97-2.58-3.964-5.048-6.653-2.469-2.689-4.753-5.72-5.075-6.737-.323-1.016-1.037-1.847-1.587-1.847-1.093 0-.201 3.9 1.247 5.45 1.363 1.459 1.06 3.702-.772 5.727-1.561 1.725-1.412 2.315 2.5 9.865 4.131 7.974 5.025 10.61 3.218 9.494-.518-.32-2.43.771-4.25 2.424-5.36 4.87-6.372 5.659-8.134 6.335-.921.353-1.674 1.232-1.674 1.953 0 .721-.876 1.942-1.946 2.713-1.071.772-1.719 1.771-1.441 2.221.278.45.059.818-.487.818-.545 0-1.264.858-1.597 1.908-.333 1.049-1.35 2.193-2.261 2.543-1.408.54-1.379.329.193-1.408 2.857-3.157 1.063-2.413-2.307.957-1.65 1.65-2.585 3-2.077 3s.007.916-1.113 2.036c-1.121 1.121-2.471 1.769-3 1.441-.53-.327-.964.125-.964 1.006 0 .88-.928 2.594-2.062 3.809-1.555 1.665-1.897 1.778-1.393.458 1.096-2.868-.282-1.984-1.87 1.2-1.064 2.132-1.153 3.085-.324 3.433.632.265.223.768-.909 1.116-2.608.803-5.55 6.197-5.787 10.61-.102 1.903-.679 3.297-1.314 3.176-.622-.118-1.428 1.457-1.79 3.5-1.074 6.065-1.453 6.786-3.562 6.786-1.107 0-1.839-.466-1.626-1.035.213-.57.893-.924 1.512-.786.619.137 1.177-.538 1.24-1.5.112-1.689.278-2.62.848-4.75.506-1.892.733-3.003.916-4.5.145-1.175.532-1.067 1.787.5 1.643 2.049 1.6 1.643-.336-3.164-.427-1.06-.279-1.423.407-.999.665.411.898-.017.609-1.12-.44-1.686 5.067-14.144 16.97-38.389 5.693-11.594 5.789-12.707.396-4.58-7.137 10.755-24.415 48.388-27.433 59.752-.803 3.025-2.207 6.183-3.12 7.018-1.736 1.588-11.604 2.086-13.824.698-.64-.401-1.342-.196-1.559.455-.255.767-.9.866-1.835.281-.793-.496-2.278-.764-3.302-.595-1.186.195-1.7-.177-1.42-1.025.509-1.537 9.535-2.918 11.781-1.803.825.409 2.625.628 4 .485 1.375-.142 3.288-.316 4.25-.386.962-.071 1.75-.564 1.75-1.097 0-.532-.629-.727-1.399-.431-.769.295-1.696.056-2.059-.532-.994-1.609-2.838-1.283-2.197.389.457 1.19.082 1.276-2.044.467-1.447-.55-5.216-.694-8.49-.323-4.943.559-6.127 1.086-7.386 3.282-1.294 2.261-1.416 2.311-.894.367.35-1.305.156-2.25-.464-2.25-.587 0-1.067.659-1.067 1.465 0 .805-.87 1.93-1.934 2.5-2.601 1.392-3.74 1.309-2.266-.165 2.12-2.12 1.278-3.179-.957-1.205-1.852 1.635-1.752 1.197.704-3.095 1.574-2.75 6.89-11.3 11.813-19 4.924-7.7 9.444-14.914 10.046-16.031 2.14-3.971 12.211-19.824 19.891-31.309 9.446-14.124 15.114-21.433 23.775-30.66 6.816-7.261 9.928-11.291 9.928-12.857 0-.502-.994.385-2.209 1.972s-4.86 5.81-8.101 9.385c-10.473 11.553-28.001 35.949-42.514 59.173-12.843 20.551-18.839 29.554-27.676 41.557l-3 4.075-10 .584c-5.5.321-15.737.723-22.75.893-11.43.277-12.75.134-12.75-1.383 0-5.734 9.086-45.881 13.091-57.843 2.778-8.297 2.149-9.651-.723-1.556-4.089 11.525-9.104 30.612-11.887 45.24-1.439 7.568-3.002 14.153-3.472 14.633-1.278 1.305-16.113 1.786-17.578.57-.868-.721-1.452-.718-1.901.008-.963 1.558-17.254 1.374-17.784-.201-.332-.985-.734-.992-1.898-.031-.991.817-4.833 1.147-11.661 1l-10.183-.219-.002-18.655c-.003-28.438 3.025-51.349 10.131-76.656 4.844-17.251 12.494-34.399 24.483-54.88 5.055-8.635 5.443-9.783 6.436-19 1.644-15.268.722-67.715-1.386-78.809-.94-4.95-2.627-13.95-3.749-20-4.496-24.237-8.33-41.02-11.537-50.5-4.268-12.616-17.843-36.464-29.804-52.356-4.992-6.632-9.576-10.196-9.576-7.443 0 .557-.661.759-1.468.45-.807-.31-1.777-.064-2.154.547-.416.673-.232.83.467.397 1.803-1.113 1.355.998-.537 2.533-1.458 1.182-1.576 1.165-.853-.128.661-1.183.568-1.25-.442-.317-.704.651-1.387 2.226-1.519 3.5-.431 4.176-.514 4.333-1.512 2.817-.81-1.23-.949-1.14-.771.5.261 2.413-3.066 10.5-4.32 10.5-.49 0-.893.787-.895 1.75-.002.963-.825 3.1-1.83 4.75-1.593 2.618-4.011 8.845-11.645 30-.993 2.75-2.378 7.475-3.079 10.5-.701 3.025-1.342 5.05-1.425 4.5-.271-1.797-2.986 7.927-3.002 10.75-.008 1.513-.39 2.75-.848 2.75-.459 0-.874.563-.923 1.25-.112 1.549-2.034 12.364-2.8 15.75-.778 3.436-3.212 22.186-3.83 29.5-.279 3.3-1.198 10.275-2.043 15.5-.844 5.225-1.543 12.988-1.553 17.25-.01 4.262-.257 7.75-.548 7.75-.292 0-3.405-2.439-6.918-5.419-7.561-6.414-21.46-15.879-30.552-20.805-12.266-6.646-32.641-11.734-47.093-11.76-9.412-.017-16.785 1.964-24.812 6.669-4.877 2.858-14.434 11.309-13.662 12.082.256.255 1.659-.826 3.12-2.402 1.907-2.058 1.746-1.654-.57 1.431-1.773 2.363-3.469 4.052-3.768 3.752-.586-.586-5.132 6.336-5.184 7.893-.017.518.669.068 1.524-1 1.494-1.864 1.512-1.852.465.309-.6 1.238-1.6 2.25-2.222 2.25-.622 0-.866.266-.541.59.325.325-.022 2.326-.77 4.446-1.242 3.522-1.187 4.076.641 6.399 1.1 1.399 7.934 7.366 15.186 13.261 16.469 13.386 42.686 35.51 42.686 36.022 0 1.467-40.971-31.796-55.5-45.058l-5-4.564-1.141 6.702c-2.575 15.125-3.572 26.404-2.908 32.912.769 7.548 3.343 24.453 3.773 24.784.152.117 3.03.74 6.396 1.384 12.573 2.406 41.779 15.392 55.38 24.624 7.975 5.413 19.682 14.554 26.5 20.691 1.65 1.485 5.202 4.556 7.892 6.824 14.337 12.085 31.672 34.075 57.14 72.483 3.282 4.95 6.418 9.331 6.968 9.735 1.248.916 3.28.847-23 .779-17.208-.045-22.221-.35-23.013-1.402-.84-1.117-1.251-1.09-2.417.158-1.215 1.301-5.653 1.424-32.987.915-31.526-.587-47.82-2.02-58.631-5.158-11.453-3.325-25.558-15.686-56.298-49.341-20.99-22.98-27.033-27.924-41.052-33.583-12.974-5.238-26.825-6.644-37.453-3.801l-2.657.71 2.371 3.494c1.304 1.922 4.423 6.644 6.931 10.494 4.474 6.868 17.235 23.945 33.318 44.588 4.462 5.727 10.406 14.012 13.21 18.412l5.097 8-2.71.866c-1.49.476-8.85.922-16.355.992l-13.646.126 2.016 2.83c1.108 1.557 8.792 10.111 17.074 19.008 8.282 8.898 22.966 24.712 32.63 35.143 9.665 10.431 20.055 21.599 23.091 24.818l5.518 5.853 38.482-.159c21.164-.088 126.006-.459 232.981-.825l194.5-.665 4.586-2.69c2.522-1.479 7.877-5.751 11.9-9.493 17.577-16.351 25.567-20.709 41.137-22.436 11.335-1.258 287.446-.37 302.078.971l7.7.706.634-4.022c1.634-10.377 7.175-23.019 12.134-27.686 2.274-2.141 3.589-2.379 15.657-2.837 7.246-.275 114.199-.176 237.674.221 123.475.396 275.655.825 338.178.954l113.678.233-1.57 3.546c-2.231 5.035-4.229 14.861-5.066 24.91l-.72 8.636-4.5.6c-4.082.544-3.87.614 2.283.75 6.886.152 11.664 1.919 20.667 7.644 14.919 9.485 25.127 15.407 28.391 16.47 2.989.974 24.529 1.192 97 .982 91.478-.265 93.259-.233 98.681 1.76 10.287 3.781 16.459 7.554 22.617 13.829 6.189 6.307 10.361 14.361 10.361 20.003V2408l-169.25.093c-93.088.052-489.65.072-881.25.046-391.6-.027-717.052.269-723.226.656l-11.226.705 8.656 10c13.149 15.19 97.923 99.546 113.64 113.08 82.38 70.936 134.814 109.094 204.624 148.912 37.799 21.559 54.279 28.916 74.032 33.048 27.18 5.685 49.621-2.844 59.304-22.54l3.196-6.5v-101c0-96.344.087-101.254 1.885-106.5 2.474-7.215 4.288-10.708 7.886-15.187 3.358-4.179 12.834-11.123 18.291-13.403 3.236-1.352 34.136-1.57 270.795-1.909 444.15-.637 814.494-.446 826.143.425 13.15.983 15.737 1.971 25.502 9.738 9.605 7.638 15.603 14.415 18.888 21.336l2.61 5.5v201l3 5.934c12.786 25.292 47.196 31.653 83.935 15.516 8.47-3.721 23.456-11.585 58.565-30.735 38.866-21.199 108.105-66.927 145.5-96.095 4.4-3.431 11.15-8.646 15-11.588 7.323-5.595 47.133-38.686 58.988-49.032 16.932-14.777 26.582-23.42 34.012-30.462 34.818-33.003 53.318-51.403 69.569-69.196 10.377-11.361 25.414-26.599 33.415-33.862 8.001-7.262 20.276-19.566 27.278-27.342a3465.586 3465.586 0 0 1 25.214-27.638 37823.47 37823.47 0 0 0 18.003-19.484c3.036-3.291 9.234-9.845 13.771-14.565 4.537-4.72 8.251-8.777 8.252-9.016.001-.239-4.836-.284-10.75-.1-11.499.357-76.344-1.593-77.069-2.319-.239-.239 1.077-1.69 2.924-3.225 23.535-19.559 31.799-27.549 48.391-46.791 31.591-36.636 51.23-67.812 75.276-119.5 8.109-17.428 18.402-46.383 25.598-72 14.305-50.931 18.028-72.751 23.646-138.581.614-7.194 1.484-14.709 1.933-16.7.448-1.99.631-3.803.406-4.028-.605-.605-16.628 3.691-32.732 8.777-7.769 2.454-25.6 7.419-39.625 11.035-42.064 10.845-58.713 17.142-86.638 32.769-17.897 10.015-33.114 20.515-52.504 36.228-21.446 17.379-30.707 26.158-51.692 49-9.095 9.9-18.871 20.326-21.724 23.168-9.32 9.285-32.38 37.262-44.442 53.918-8.935 12.338-27.234 34.388-28.096 33.855-.484-.3-.67.041-.412.757.258.716-2.672 4.902-6.51 9.302-3.838 4.4-6.98 8.338-6.98 8.75-.001.412-.507.75-1.124.75-.776 0-.738-.464.122-1.5.685-.825.857-1.5.383-1.5-.475 0 .258-1.084 1.627-2.409 2.607-2.522 3.654-3.832 9.76-12.21 2.051-2.816 6.655-8.392 10.23-12.392 3.575-4.001 7.16-8.212 7.966-9.359.806-1.147 2.854-3.445 4.55-5.107 3.425-3.357 9.895-12.446 9.29-13.051-.213-.212-1.719.491-3.347 1.564-1.627 1.073-2.557 1.954-2.067 1.957.491.004-2.277 3.269-6.15 7.257-22.64 23.306-52.436 60.28-51.485 63.887.092.351-.255 2.151-.772 4l-.941 3.363 1.962-2.5c1.078-1.375 2.211-3.246 2.516-4.158.305-.911 1.221-1.913 2.036-2.226.953-.365.573.762-1.063 3.158-1.399 2.049-3.901 8.226-5.56 13.726-4.019 13.328-7.825 24.221-9.958 28.5-6.758 13.559-8.998 17.729-14.771 27.5-3.574 6.05-7.494 12.575-8.712 14.5a349.266 349.266 0 0 0-4.435 7.25c-1.222 2.062-2.447 3.75-2.722 3.75-.275 0 .473-1.575 1.663-3.5s1.876-3.5 1.525-3.5.017-.936.818-2.08c.844-1.204 1.271-3.414 1.016-5.25-.348-2.493-.206-2.85.665-1.67.899 1.218.994 1.095.505-.653-.396-1.415.846-5.183 3.625-11 6.448-13.498 6.252-12.828 2.972-10.168-1.574 1.276-2.736 2.47-2.58 2.651.868 1.018-21.229 18.484-22.439 17.736-.533-.329-1.294-.072-1.692.572-.483.781-.288.901.585.362.848-.524 1.067-.418.622.302-.377.611-1.347.857-2.154.547-.807-.309-1.468-.065-1.468.544s-.702 1.107-1.559 1.107-1.312.4-1.01.888c.302.488-.838 1.092-2.534 1.34-1.993.293-3.263-.019-3.594-.882-.282-.734-.872-1.113-1.31-.841-.439.271-1.269-.857-1.844-2.506-.575-1.65-.85-2.999-.611-2.999s-.438-2.363-1.504-5.25c-2.226-6.03-5.782-24.086-9.109-46.25-3.864-25.745-7.365-44.001-15.055-78.5-7.909-35.48-11.377-53.279-16.761-86-7.647-46.482-7.672-50.05-.406-58.093 3.419-3.784 3.645-5.907.631-5.907-.851 0-4.695-.76-8.541-1.688-6.975-1.684-6.992-1.696-6.495-4.762.274-1.69 2.139-7.272 4.145-12.403 2.005-5.131 4.294-11.876 5.088-14.988 1.842-7.227 3.331-18.126 2.543-18.613-.334-.206-6.674-.076-14.09.29l-13.484.664-.701 6.355c-.385 3.495-1.195 8.734-1.798 11.642l-1.098 5.287-8.169 1.195c-4.493.657-23.386 1.53-41.984 1.94-18.598.41-34.2 1.159-34.671 1.664-1.279 1.371-3.02 26.173-3.687 52.555-.325 12.849-.664 24.625-.752 26.17l-.16 2.807-29.99-.064c-16.495-.036-54.965-.559-85.49-1.162-31.014-.613-68.294-.77-84.5-.355-15.95.408-101.488.647-190.085.53l-161.085-.213-3.165 2.664c-1.741 1.464-3.165 2.165-3.165 1.557 0-1.877 10.633-22.305 14.179-27.24 8.063-11.223 25.993-22.646 39.049-24.879 4.767-.815 22.694-1.008 61.5-.661 58.762.526 54.461.184 79.074 6.286 5.666 1.405 10.829 2.378 11.472 2.164.644-.215-6.101-2.157-14.987-4.316l-16.158-3.926-.538-7c-1.306-16.987-.553-544 .778-544l131.631.5 131.5.5.239 81c.132 44.55.357 166.95.5 272l.261 191-21-.338c-11.55-.186-20.749-.085-20.442.224.307.31 8.407 1.023 18 1.585 16.811.985 21.811 1.507 24.874 2.596 2.017.718 113.11 2.633 115.67 1.994 2.241-.56 2.273-.808 4.03-31.061.288-4.95 1.862-20.475 3.498-34.5 1.637-14.025 3.639-31.35 4.449-38.5.811-7.15 1.898-15.654 2.416-18.897.995-6.233.73-7.603-1.471-7.603-1.415 0-7.243-7.718-21.385-28.32l-8.361-12.18.597-17c.817-23.241 3.567-39.899 7.926-48 .748-1.39 1.113-36.183 1.197-114 .067-61.6.489-154.525.938-206.5l.817-94.5 13.873-.277 13.874-.278.003 150.278.002 150.277 16.748.009c16.327.009 16.891.08 22.504 2.826 6.157 3.013 10.206 7.398 11.829 12.812 1.503 5.014 1.199 22.615-.534 30.926-1.033 4.954-2.698 9.08-5.163 12.792-7.086 10.673-19.73 21.135-25.543 21.135-3.43 0-6.339-4.655-10.62-17-4.973-14.336-5.612-18.139-3.786-22.51.866-2.074 1.852-6.125 2.19-9l.615-5.229-5.707-.713c-3.138-.392-5.928-.491-6.2-.22-.756.756 1.408 30.85 3.068 42.672.811 5.775 1.759 13.088 2.106 16.25.403 3.666 1.094 5.75 1.908 5.75.702 0 5.507-.893 10.678-1.984 10.569-2.231 30.88-2.708 41.902-.984 14.053 2.197 29.593 13.111 48.693 34.197 14.121 15.588 19.704 23.542 28.269 40.271 8.774 17.137 12.872 33.195 11.74 46-1.084 12.272-9.388 74.481-10.411 77.992-.511 1.757-.384 1.83 1.077.618 1.323-1.099 5.326-1.274 19.894-.874 15.032.413 20.34.981 30.197 3.23 12.942 2.952 20.314 5.524 24.614 8.586 1.505 1.071 2.891 1.948 3.081 1.947.19 0 .481-2.097.647-4.659.165-2.562 2.061-11.899 4.213-20.749s4.88-20.366 6.062-25.591a516.048 516.048 0 0 1 7.904-30.5c.966-3.3 2.761-9.825 3.989-14.5 1.228-4.675 3.049-11.2 4.046-14.5.997-3.3 2.026-7.125 2.287-8.5.26-1.375 1.679-7 3.154-12.5 1.474-5.5 4.015-15.4 5.646-22 1.63-6.6 3.658-14.475 4.505-17.5.847-3.025 2.152-7.75 2.901-10.5 3.564-13.089 5.694-20.044 6.425-20.978 1.031-1.316 4.736-12.977 5.567-17.522.353-1.925 1.226-5.525 1.941-8 3.338-11.552 5.657-20.026 11.767-43 3.149-11.843 21.276-67.342 25.803-79a698.975 698.975 0 0 0 3.964-10.5c2.236-6.11 4.653-12.007 6.558-16 .788-1.65 2.121-4.757 2.963-6.904.841-2.146 1.769-3.664 2.062-3.372.469.47-.444 3.14-6.077 17.776-2.183 5.672-9.988 28.349-15.316 44.5-14.095 42.724-22.348 71.683-29.07 102-1.097 4.95-4.002 14.653-6.455 21.561-4.835 13.618-7.471 22.948-19.196 67.939a15489.373 15489.373 0 0 1-14.99 57c-9.984 37.603-13.329 52.603-15.39 69.016-.502 4-1.415 7.583-2.03 7.963-.698.431.632 2.344 3.55 5.105 18.038 17.069 39.161 43.219 52.437 64.916 3.534 5.775 6.767 10.95 7.185 11.5 11.777 15.5 22.976 35.543 23.188 41.499.058 1.648.444 2.997.856 2.999.412.001.743.789.735 1.752-.013 1.496-.157 1.532-.985.25-.736-1.138-.973-.716-.985 1.75-.008 1.787-.492 3.25-1.074 3.25-.582 0-.781-.45-.441-1s-.014-1-.786-1c-2.036 0-4.126-2.825-6.152-8.316-1.253-3.395-2.204-4.652-3.222-4.261-.794.305-1.183.132-.864-.384.319-.516-.413-1.47-1.627-2.12-1.752-.938-2.84-.876-5.278.297a399.82 399.82 0 0 1-7.685 3.552c-2.538 1.141-7.165 4.152-10.283 6.691-3.118 2.54-6.174 4.306-6.791 3.925-.621-.384-.845-.247-.502.308.694 1.123-3.832 5.67-6.623 6.654-1.053.372-1.513 1.127-1.096 1.801.419.678.284.894-.323.519-.573-.354-1.593.021-2.268.834-.675.813-1.738 1.172-2.363.797-.625-.374-.511.091.254 1.034 1.221 1.504 1.185 1.635-.29 1.069-.949-.364-1.556-.2-1.392.377.16.563-.103 1.031-.585 1.04-.482.01-1.716 1.293-2.743 2.85-1.027 1.558-1.886 2.383-1.908 1.833-.022-.55-.869-.007-1.882 1.207-1.014 1.215-2.19 1.89-2.615 1.5-.424-.389-.522.306-.217 1.544.306 1.242.144 1.998-.359 1.687-.503-.311-1.183.136-1.512.993-.329.857-.953 1.338-1.388 1.069-.435-.269-1.046.176-1.357.989-.339.883-1.286 1.25-2.355.913-1.696-.536-1.695-.489.022.92 1.149.944 1.423 1.725.75 2.141-.583.36-1.06.193-1.06-.373 0-.565-.693-.761-1.541-.436-1.047.402-1.399 1.49-1.098 3.4.322 2.04.08 2.669-.882 2.299-.729-.279-1.845.462-2.479 1.647-.692 1.292-1.744 1.928-2.629 1.589-.911-.35-1.215-.145-.795.534.374.605.27 1.388-.232 1.739-.502.351-1.91 1.936-3.128 3.523l-2.216 2.885v-2.635c0-1.449.45-2.635 1-2.635s1-.54 1-1.2c0-.933-.267-.933-1.2 0-.66.66-2.073 1.2-3.14 1.2-1.067 0-2.537.787-3.268 1.75-1.261 1.661-1.33 1.659-1.36-.048-.018-.989.644-7.739 1.471-15 .826-7.261 2.182-23.102 3.012-35.202 1.681-24.483 3.548-42.905 5.899-58.179.862-5.599 1.782-14.824 2.044-20.5l.478-10.321-1.406 12a2424.6 2424.6 0 0 1-2.958 24c-2.889 22.325-5.434 44.941-6.524 57.986-.597 7.142-1.724 17.042-2.505 22a1424.524 1424.524 0 0 0-2.561 17.014c-1.404 9.838-3.787 18.448-5.611 20.272-1.161 1.161-1.371.699-1.371-3.017 0-2.413.417-6.833.926-9.821 1.455-8.537 2.047-18.934 1.078-18.934-.485 0-1.157 2.137-1.494 4.75-.337 2.613-1.06 5.565-1.608 6.561-1.371 2.494-2.008 32.506-.707 33.309.555.343 2.74 4.388 4.855 8.989 2.115 4.6 5.76 11.633 8.099 15.628 2.34 3.994 5.081 8.966 6.092 11.047 1.896 3.902 3.759 4.166 3.759.534 0-2.79 8.828-15.042 10.219-14.183.622.384.806.214.429-.396-.771-1.247 4.15-7.482 5.33-6.753.437.271 1.409-.291 2.159-1.247 1.233-1.574 1.197-1.609-.387-.367-.963.755-1.749.98-1.747.5.004-1.488 16.94-19.219 18.973-19.864 1.263-.401 1.71-1.163 1.303-2.223-.375-.979-.211-1.361.417-.973 1.015.628 4.95-2.896 4.654-4.167-.083-.355.268-.528.778-.386.51.143 1.191-.426 1.513-1.265.321-.838 1.88-2.91 3.463-4.605 9.079-9.72 20.526-22.574 27.505-30.889 8.142-9.7 15.521-17.828 25.503-28.089 3.087-3.173 7.797-8.388 10.469-11.59 23.998-28.763 52.587-56.241 80.719-77.584 27.365-20.76 62.626-42.282 84.024-51.284 9.302-3.914 10.496-4.73 13.907-9.511 5.98-8.382 13.492-23.905 17.731-36.639 11.337-34.063 8.71-68.839-7.719-102.171-4.063-8.246-7.133-12.952-11.173-17.132-3.063-3.169-6.205-5.953-6.981-6.185-1.183-.354-1.123-1.222.371-5.369.98-2.72 2.585-7.196 3.565-9.946.981-2.75 2.765-7.175 3.963-9.833 1.199-2.658 1.983-5.03 1.742-5.27-.496-.496-6.266 12.908-7.258 16.86-.359 1.428-1.454 3.322-2.435 4.209-1.65 1.494-1.821 1.47-2.289-.322-.842-3.218.008-10.818 1.602-14.334.825-1.821 1.762-4.885 2.08-6.81.42-2.534.333-2.939-.313-1.465-1.008 2.295-4.109 5.175-4.132 3.837-.009-.479-.452-.197-.985.628-.746 1.154-.976.807-1-1.5-.021-2.066-.298-2.578-.89-1.643-.662 1.043-1.034 1.075-1.613.138-.414-.67-.255-1.526.354-1.903.729-.45.403-1.286-.956-2.449-1.174-1.006-1.811-2.419-1.479-3.284.843-2.197-.43-6.468-1.696-5.686-.586.362-.345-.37.535-1.626 1.487-2.123 1.463-2.433-.327-4.355-2.225-2.388-2.462-3.685-.678-3.707.833-.011.75-.339-.25-.985-.825-.533-1.107-.976-.628-.985.48-.008.255-.774-.5-1.702-1.201-1.478-1.154-1.606.378-1.032 1.192.447 1.75.166 1.75-.88 0-1.081-.593-1.348-2-.901-1.419.45-2 .18-2-.933 0-.862-.525-1.567-1.167-1.567-.641 0-.87-.296-.508-.658.362-.362.148-1.272-.475-2.023-.906-1.091-.771-1.226.673-.672 1.242.477 1.58.328 1.082-.477-.398-.644-1.409-1.17-2.247-1.17-.839 0-1.328-.562-1.088-1.25.241-.687 1.178-1.118 2.084-.956.905.161 1.646-.203 1.646-.809 0-.607-.45-.825-1-.485-.55.34-1.007-.196-1.015-1.191-.013-1.534-.163-1.581-.985-.309-.838 1.297-.971 1.275-.985-.167-.008-.916-.577-1.856-1.265-2.087-.968-.326-.932-.805.158-2.126 1.155-1.399 1.174-1.921.103-2.912-.954-.883-1.126-.891-.641-.027.364.649.252 1.434-.249 1.744-.501.31-1.199-.185-1.55-1.101-.351-.915-.113-1.989.53-2.387.715-.441.911-1.753.505-3.371-.366-1.456-1.054-2.407-1.531-2.113-1.027.636-2.069-1.748-2.09-4.785-.013-1.766-.195-1.89-.985-.668s-.972 1.099-.985-.667c-.008-1.191-.577-2.429-1.265-2.75-1-.466-1-.7 0-1.166 1.494-.697 1.582-2.364.235-4.417-.876-1.333-1.094-1.333-1.97 0-.788 1.201-1.003 1.002-1.079-1-.051-1.375-.331-1.906-.622-1.179-.663 1.66-3.284-3.129-3.384-6.185-.068-2.046-.103-2.053-.841-.164-.692 1.77-.824 1.694-1.291-.75-.535-2.795-.096-3.157 2.577-2.132 1.084.416 1.374 1.416.981 3.379-.307 1.534-.175 3.024.293 3.311.468.288.904-.875.968-2.584.064-1.709.599-3.268 1.187-3.464.603-.201.182-1.246-.964-2.392-1.265-1.265-1.87-2.901-1.599-4.322.36-1.884.023-2.263-1.918-2.152-1.98.113-2.113.311-.839 1.244 1.922 1.408 1.976 2.78.081 2.053-.79-.303-1.654-.013-1.921.643-.268.657-.522.38-.565-.615-.051-1.172-.52-1.544-1.329-1.058-.849.51-.81.209.122-.941 1.391-1.715 1.273-1.807-2.622-2.052-.963-.061-2.523-1.017-3.467-2.125-2.051-2.407-2.326-.816-.318 1.835.874 1.153 1.898 1.552 2.718 1.058.937-.564.894-.232-.15 1.15-.807 1.068-1.535 2.071-1.619 2.228-.084.157-.907-1.306-1.83-3.25-1.881-3.964-2.874-4.335-4.777-1.786-1.288 1.725-3.475 2.883-15.305 8.103-8.322 3.673-57.044 28.015-68.056 34.002-18.386 9.995-52.023 31.071-65.946 41.318-18.177 13.379-20.5 14.843-20.5 12.922 0-2.79 2.425-5.068 14-13.154 28.017-19.572 34.978-24.016 66.042-42.165 22.479-13.132 29.418-16.716 61.506-31.763 16.474-7.725 30.097-14.474 30.275-14.998.177-.523 1.87-1.242 3.761-1.597 1.891-.354 3.659-1.001 3.928-1.437.27-.436 1.428-.548 2.574-.248 1.544.404 1.745.754.775 1.353-.762.471-1.626.308-2.069-.389-.506-.795-.767-.574-.777.66-.011 1.381.434 1.671 1.735 1.131.963-.399 2.319-.748 3.014-.774.764-.028 1.035-.772.685-1.874-.434-1.368-.183-1.675.997-1.222 1.193.457 1.411.172.895-1.171-.466-1.216-.312-1.547.489-1.052 1.428.882 1.556 3.605.17 3.605-.55 0-1 .45-1 1 0 2.056 1.986.905 2.589-1.5.345-1.375 1.077-2.5 1.626-2.5.55 0 .745.661.436 1.468-.662 1.725.918 3.039 1.847 1.536.35-.566-.035-2.374-.854-4.017-.856-1.714-1.057-2.987-.474-2.987.56 0 1.244.869 1.522 1.931.297 1.134 1.076 1.712 1.888 1.4.998-.383 1.115-1.032.423-2.326-.712-1.329-.512-2.147.768-3.15 1.533-1.202 1.585-1.171.46.27-1.093 1.401-.938 1.625 1.124 1.625 1.912 0 2.286-.408 1.861-2.031-.347-1.328-.147-1.795.576-1.347.609.376 1.596-.229 2.193-1.344s1.52-2.028 2.05-2.028c1.139 0 4.967-3.666 4.96-4.75-.002-.413 1.33-1.096 2.962-1.519 1.94-.502 2.783-1.246 2.436-2.148-.291-.76.021-1.721.693-2.136.739-.457.966-.34.574.294-.357.577-.027 1.288.733 1.579.975.375 1.264-.109.983-1.645-.219-1.196-.131-1.612.196-.925.916 1.925 2.722 1.48 2.033-.5-.508-1.459-.36-1.427.893.191 1.437 1.858 1.505 1.815 1.581-1 .043-1.617.319-2.338.613-1.602.37.929.892.622 1.701-1 .641-1.286 1.715-2.395 2.387-2.464.671-.069 1.558-.235 1.97-.368.412-.134 1.088-.191 1.5-.125.412.065.75-.527.75-1.315 0-.788.933-1.728 2.072-2.09 1.287-.408 1.86-1.212 1.512-2.119-.314-.819-.126-1.193.427-.851.544.336.996.022 1.004-.698.013-1.06.177-1.055.861.025.665 1.049 1.016.943 1.644-.5.438-1.009.731-2.158.649-2.554-.082-.396.759-1.206 1.869-1.8 1.11-.594 1.774-1.475 1.475-1.958-.298-.483.392-1.174 1.533-1.537 1.142-.362 2.571-1.744 3.175-3.072.605-1.327 1.628-2.413 2.274-2.413 1.227 0 6.621-5.55 5.999-6.173-.196-.196.551-1.475 1.661-2.842 1.11-1.367 1.731-1.928 1.38-1.246-.407.789-.122 1.04.786.691.784-.301 1.902-1.533 2.485-2.738 1.008-2.086 1.068-2.047 1.251.808.136 2.12.411 1.508.938-2.085.829-5.645 2.131-7.613 16.831-25.427 25.624-31.055 44.375-67.707 51.352-100.376 2.994-14.023 2.988-35.707-.013-46.867-3.976-14.785-12.069-28.21-21.204-35.176-8.055-6.144-21.538-11.838-30.237-12.771l-2.776-.298-.309-22.5c-.264-19.293-.622-23.705-2.508-30.956-5.733-22.041-21.058-44.723-39.929-59.095-11.545-8.792-37.851-20.551-55.202-24.677-4.818-1.145-11.806-1.529-27-1.485-17.838.052-21.344.328-27 2.124-3.575 1.135-7.084 2.069-7.797 2.076-1.839.018-24.052 8.993-27.953 11.294-1.787 1.054-3.25 1.688-3.25 1.408 0-.647-5.334 3.763-10.054 8.311-4.28 4.124-9.917 17.872-15.992 39-2.135 7.425-5.187 17.325-6.784 22-5.244 15.359-19.704 46.404-23.79 51.079-.759.868-1.38 1.895-1.38 2.281 0 1.33-11.243 15.64-12.288 15.64-.575 0-.801.244-.502.543.298.298-2.214 3.54-5.584 7.204-6.868 7.469-27.626 28.459-27.626 27.936 0-.186-3.129 2.791-6.953 6.615-4.643 4.643-7.466 6.755-8.5 6.359-.851-.327-1.547-.132-1.547.433 0 .566-.359.806-.798.535-.439-.271-1.451-.03-2.25.535-1.184.839-1.129.925.298.466.963-.31 1.75-.303 1.75.014 0 1.086-4.497 5.325-5.667 5.343-.641.009-1.393.58-1.671 1.267-.277.688-.554.35-.615-.75-.096-1.738-.27-1.802-1.329-.485-2.363 2.94-9.539 7.993-10.87 7.655-.741-.188-1.008-.153-.592.079.975.544-.067 2.251-1.374 2.251-.55 0-.746-.412-.435-.915.311-.503 0-1.122-.691-1.376-.691-.254-.018-.792 1.494-1.194 1.512-.403 2.75-1.119 2.75-1.591 0-.974 11.644-8.924 13.071-8.924.511 0 .929-.606.929-1.347s1.012-1.836 2.25-2.433c1.238-.596 1.8-1.115 1.25-1.152-.55-.038-5.275 2.329-10.5 5.258-17.493 9.808-31.485 17.796-33.202 18.955-.936.632-1.962.888-2.28.57-.318-.317-.677-12.517-.798-27.111l-.22-26.533 5.5-1.705c11.634-3.605 35.129-16.325 39.159-21.2.738-.892-2.391.715-6.952 3.572-8.421 5.274-19.206 10.84-25.331 13.074-8.151 2.972-8.822 3.026-10.823.878-1.048-1.125-1.666-2.671-1.373-3.436.294-.764.036-1.39-.573-1.39s-1.107-.738-1.107-1.64c0-2.266-4.141-10.36-5.3-10.36-.583 0-.576.478.019 1.25 1.123 1.455 4.44 9.75 3.899 9.75-.201 0-2.27-3.712-4.598-8.25-2.328-4.537-5.356-9.742-6.728-11.566-1.371-1.823-2.241-3.568-1.933-3.877.978-.977-2.153-7.211-4.899-9.756-1.571-1.456-2.339-2.937-1.896-3.654.507-.821.322-.945-.579-.387-.958.591-1.151.364-.697-.819.384-1.001-.371-2.824-1.943-4.693-2.176-2.585-2.814-2.859-4.15-1.777-1.215.985-1.406.991-.828.029.438-.729.24-1.25-.475-1.25-.674 0-.97-.255-.658-.567.521-.521-.625-1.916-7.899-9.616-1.395-1.476-2.232-3.175-1.861-3.775.371-.6.304-1.009-.15-.908-1.522.339-4.318-1.334-3.755-2.246.307-.496-.172-1.182-1.063-1.524-.892-.342-1.41-1.173-1.151-1.846.495-1.291-2.817-4.723-3.703-3.837-.284.284-.25-.504.076-1.751.476-1.819.265-2.141-1.067-1.63-1.115.428-1.661.119-1.661-.938 0-.957-.563-1.36-1.431-1.027-1.001.384-1.319-.035-1.058-1.393.206-1.068-.036-1.942-.537-1.942s-.629-.787-.283-1.75c.345-.963.258-1.414-.195-1.004-.919.835-4.496-4.504-4.496-6.711 0-.779-.526-1.742-1.17-2.14-.754-.466-.971-.204-.61.736.374.976-.146 1.513-1.567 1.62-1.418.107-1.701-.103-.848-.63.704-.436 1.623-2.074 2.042-3.641.83-3.102 3.153-4.623 3.153-2.063 0 .87-.482 1.583-1.071 1.583-.59 0-.397.675.428 1.5s1.766 1.5 2.091 1.5c1.418 0-1.603-9.36-3.375-10.455-.629-.388-.818-.045-.472.857.689 1.796-2.11 6.201-3.013 4.741a1.192 1.192 0 0 1 .396-1.633c1.588-.981 1.191-2.514-.484-1.872-1.803.692-2.034-1.217-.25-2.066.688-.327.238-.406-1-.177-1.5.279-2.25-.071-2.25-1.048 0-.806.399-1.219.886-.917 1.241.767 2.053-2.918 1.007-4.569-.797-1.258-1.324-.477-.987 1.463.079.454-.325.535-.898.181-.572-.354-.782-1.062-.465-1.574.316-.512-.014-.963-.734-1.001-.72-.039-.409-.457.691-.93 1.388-.596 1.531-.881.468-.93-.911-.042-1.62-1.138-1.75-2.705-.204-2.471-4.3-7.365-6.163-7.365-1.232 0-2.174-2.992-1.366-4.34.42-.701.061-.647-.907.138-1.387 1.123-1.688.904-2.245-1.631-.588-2.676-.848-2.832-3.014-1.81-1.5.708-1.957 1.375-1.245 1.815.62.383 1.562.427 2.094.098.549-.339.704.091.357.993-.335.875.038 2.129.83 2.786.793.658 1.412 2.153 1.378 3.323-.061 2.032-.106 2.022-1.003-.216-.517-1.29-1.833-2.578-2.925-2.864-1.093-.286-1.739-.919-1.438-1.408.302-.488-.632-1.337-2.076-1.886-3.814-1.45-4.295-1.181-1.724.963 1.449 1.208 1.877 2.138 1.182 2.568-.599.37-.839 1.326-.533 2.124.372.969.146 1.197-.681.688-.682-.42-.441.456.534 1.948 1.704 2.605 1.702 2.711-.05 2.711-1.003 0-2.382-.559-3.065-1.242-.988-.988-1.453-.938-2.281.25-.779 1.119-.89.741-.444-1.508.476-2.401.382-2.651-.469-1.25-1.315 2.165-3.398 2.325-2.582.198.359-.937.18-1.296-.452-.905-.576.356-3.517-1.758-6.537-4.698-3.02-2.94-5.903-5.238-6.406-5.107-.503.131-.63-.505-.281-1.414.349-.909.22-1.456-.286-1.217-.506.239-2.999-1.712-5.541-4.336-2.542-2.624-4.394-4.771-4.115-4.771.278 0-.792-1.002-2.379-2.227-1.587-1.224-3.379-2.868-3.983-3.652-.66-.856-1.621-1.104-2.405-.619-.874.54-1.064.416-.576-.374.712-1.153-8.441-12.189-10.802-13.024-.615-.218-.4.457.479 1.5s1.955 2.571 2.391 3.396c.705 1.333.629 1.333-.679 0-3.657-3.727-11.81-13.738-11.81-14.502 0-.466 1.238.244 2.75 1.578l2.75 2.424-2.395-2.719c-1.318-1.496-2.83-2.451-3.361-2.123-.532.329-2.491-1.117-4.355-3.212-3.585-4.029-4.403-5.532-1.865-3.426.838.696 1.753 1.036 2.033.757.626-.626-13.691-14.777-14.95-14.777-.497 0 1.975 2.691 5.494 5.979 3.52 3.288 5.933 5.988 5.364 6-.57.012-7.095-6.15-14.5-13.692-7.406-7.542-12.565-13.078-11.465-12.303 1.1.776 3.753 3.234 5.896 5.463s3.718 3.521 3.5 2.87c-.736-2.197-12.237-13.496-14.685-14.427-1.742-.662-2.151-1.272-1.448-2.157 1.005-1.264.937-2.977-.235-5.882-.365-.907-.184-1.946.404-2.309 1.193-.737 1.25-73.972.12-154.042l-.663-47-.388 66c-.529 89.881-.808 132.075-.913 137.872-.075 4.166-.301 4.696-1.556 3.655-.807-.671-1.37-1.581-1.25-2.023.12-.442-.05-.736-.378-.654-1.273.32-3.847-2.637-3.233-3.713.357-.625.281-.803-.169-.396-1.119 1.015-3.637-1.213-2.836-2.509.353-.572.189-.76-.366-.417-1.026.634-5.198-3.127-5.156-4.648.012-.459-.312-1.134-.721-1.5-.409-.367-.379.008.067.833s-.832-.051-2.84-1.946c-2.007-1.896-3.65-4.007-3.65-4.691 0-.685-.52-1.566-1.155-1.958-.779-.482-.885-.257-.328.69.455.773-.133.564-1.305-.464-1.173-1.028-2.038-2.358-1.922-2.955.115-.597-.315-1.106-.957-1.131-1.494-.058-2.82-1.384-2.878-2.878-.025-.642-.549-1.067-1.164-.946-.615.122-7.344-6.398-14.954-14.488-13.839-14.712-31.388-33.291-32.334-34.233-6.873-6.838-19.758-21.932-19.225-22.522.397-.439.22-.512-.394-.162-1.104.629-5.083-2.924-4.671-4.171.373-1.13-3.643-5.145-5.147-5.145-.797 0-1.769-.52-2.161-1.155-.482-.779-.257-.885.69-.328.773.455.548-.151-.5-1.345-2.103-2.398-3.111-2.864-1.994-.922.418.726.338.901-.191.417-.5-.459-.917-1.134-.925-1.5-.032-1.368-1.651-3.182-2.418-2.709-.437.271-4.568-3.447-9.181-8.26-32.445-33.859-43.369-45.692-43.249-46.85.075-.729-.252-1.086-.727-.792-1.058.653-15.52-14.385-15.135-15.738.151-.532-.122-.721-.608-.422-.973.602-13.191-11.605-26.565-26.54-4.749-5.304-10.203-10.84-12.119-12.301-1.916-1.461-11.912-11.972-22.213-23.356-10.302-11.384-23.725-25.874-29.83-32.199-15.747-16.316-17.032-18.241-14.139-21.179 1.608-1.633 4.689-15.378 4.728-21.099l.03-4.222 3.129 3.5c2.714 3.036 26.643 27.963 60.201 62.713 5.439 5.632 10.614 10.469 11.5 10.748.886.279 2.961.103 4.611-.391 2.703-.809 2.639-1.028-.417-1.445-2.135-.291-2.188-2.434-.527-21.303 1.43-16.234 1.764-31.922 1.845-86.666l.099-66.843 2.945-2.35c1.619-1.292 11.744-7.629 22.5-14.082 20.483-12.29 28.236-17.327 54.555-35.448 17.578-12.103 34.4-21.933 37.533-21.933 2.567 0 15.909 6.697 25.25 12.673 17.952 11.486 33.036 21.885 42.708 29.442 7.567 5.912 13.977 9.846 23 14.116 15.569 7.368 28.288 15.723 31.635 20.78l2.527 3.818-.103 26.836c-.056 14.759-.53 38.535-1.053 52.835-1.088 29.765-1.32 130.174-.342 148.36l.654 12.174 2.518-6.267c3.497-8.704 15.193-30.257 23.079-42.529a7878.206 7878.206 0 0 0 11.848-18.5c2.889-4.531 7.089-10.39 9.333-13.021 8.481-9.941 25.54-19.73 47.632-27.333 9.689-3.334 12.077-3.756 23.583-4.167 22.702-.81 42.764 5.006 75.588 21.912 26.742 13.774 39.343 22.94 46.651 33.933 6.318 9.504 6.897 13.275 5.972 38.938-1.648 45.715-1.981 64.138-1.176 64.94.461.459.348 1.137-.25 1.506-.598.37-1.087 1.311-1.087 2.092 0 .966 1.46.392 4.555-1.79 2.506-1.766 4.041-3.383 3.413-3.592-.629-.21-1.644.12-2.256.732-1.731 1.731-3.712 1.311-3.712-.788 0-3.117 7.536-12.203 15.266-18.404 11.622-9.324 30.405-21.701 37.072-24.428 15.882-6.497 29.654-8.586 53.413-8.1 8.939.183 16.251.154 16.25-.063-.005-1.527-14.908-44.334-18.898-54.282-18.665-46.539-40.975-88.062-72.978-135.823-14.511-21.656-20.28-29.842-38.651-54.851-5.515-7.507-11.501-15.845-13.304-18.528-3.259-4.853-3.266-4.89-1.337-7 4.018-4.395 16.58-25.636 23.136-39.121 16.993-34.951 31.194-81.309 39.058-127.5.609-3.575 1.342-7.481 1.63-8.679.494-2.056-.091-1.932-10.316 2.172-5.963 2.393-18.491 6.433-27.841 8.978-42.657 11.609-59.304 17.041-75.214 24.541-26.701 12.587-42.811 27.412-60.297 55.488-11.137 17.882-15.642 20.704-29.537 18.501-13.556-2.15-21.476-7.582-32.809-22.501-17.015-22.4-47.405-56.422-74.3-83.18-34.668-34.491-82.739-73.617-123.748-100.719-32.887-21.735-51.336-31.939-86.095-47.619-8.8-3.97-18.7-8.471-22-10.001-8.162-3.787-41.606-16.946-54.5-21.445-20.581-7.181-65.251-17-89-19.563-15.794-1.705-49.155-1.966-64-.501m-47.352 113.778c-.347 2.887-.635 14.475-.641 25.75-.006 11.275-.306 33.616-.668 49.648l-.657 29.147-3.872.619c-4.665.746-5.81 3.015-5.81 11.515v5.799l4.64.636c2.551.35 7.538.636 11.082.636h6.443l-.646 44.75c-.355 24.612-.843 46.233-1.084 48.046-.657 4.936 1.531 8.201 15.507 23.127 39.246 41.917 83.834 91.533 101.618 113.077 4.313 5.225 11.929 14 16.924 19.5 4.994 5.5 10.116 11.688 11.38 13.75 1.265 2.062 2.439 3.75 2.61 3.75.171 0 .408-54.112.527-120.25.118-66.138.504-126.1.857-133.25l.642-13 8.168-.289 8.169-.289-.169-8.211-.168-8.211-4.811-.307-4.81-.308.716-55.442.716-55.443h-166.032l-.631 5.25M1524.5 537.11c-9.007 7.876-23.268 23.135-31.207 33.39-.851 1.1-3.149 3.679-5.106 5.732-1.956 2.052-3.331 3.958-3.054 4.234.525.525 27.327 3.942 39.251 5.004l6.884.613-.463-18.483c-.301-11.992-.874-18.978-1.633-19.893-.643-.775-1.458-3.513-1.81-6.085-.684-4.988-1.267-5.907-2.862-4.512m943.844 9.703c-17.307 19.447-50.571 61.218-61.468 77.187-4.316 6.325-9.667 13.975-11.892 17-4.232 5.754-26.913 39.733-35.712 53.5-2.812 4.4-7.595 12.575-10.628 18.167-3.033 5.592-11.544 20.217-18.913 32.5-11.616 19.362-16.614 28.216-31.236 55.333-9.017 16.723-16.714 31.872-17.875 35.179-.737 2.102-1.611 6.521-1.942 9.821l-.602 6 1.828-6.5c1.005-3.575 2.648-8.525 3.651-11 1.687-4.164 18.068-36.01 24.433-47.5 1.524-2.75 3.999-7.25 5.502-10 4.289-7.85 10.134-17.838 19.311-33 4.66-7.7 10.041-16.7 11.957-20 13.772-23.718 21.992-37.275 34.742-57.299 3.411-5.356 9.647-14.368 21.938-31.701 4.68-6.6 10.209-14.445 12.286-17.432 2.077-2.988 6.273-8.613 9.326-12.5A4731.779 4731.779 0 0 0 2439.039 584c10.004-12.936 21.355-26.728 32.81-39.866 2.942-3.373 5.121-6.134 4.843-6.134-.278 0-4.035 3.966-8.348 8.813m-987.109 38.237c-1.246.493-11.911 10.513-23.699 22.265l-21.434 21.369 24.199.66c13.309.363 33.649 1.327 45.199 2.143 11.55.815 21.9 1.489 23 1.498 1.945.014 1.995-.591 1.831-22.214l-.168-22.229-16.832-1.691c-25.244-2.536-29.619-2.782-32.096-1.801m-50.835 48.808c-4.692 3.439-13.297 11.814-27.475 26.739l-10.541 11.098 20.058.65c29.072.942 79.398.758 84.058-.307 3.568-.816 3.794-.762 2.09.501-2.011 1.49-5.771 4.686-11.59 9.852-3.23 2.866-3.195 2.778.453-1.142 2.174-2.337 3.749-4.283 3.5-4.326-.249-.042-1.195-.22-2.102-.396-.906-.176-23.856-.627-51-1.002l-49.351-.682-8.5 8.345c-4.675 4.59-13.592 13.828-19.815 20.528l-11.315 12.182 15.315.345c8.423.189 49.515.442 91.315.563l76 .219-.273-23.762c-.15-13.07-.462-24.295-.693-24.945-.231-.651-1.908-1.366-3.727-1.59l-3.307-.408 3.605-.16 3.605-.16.705-14.498c.388-7.974.485-14.856.215-15.292-.27-.436-3.559-.888-7.31-1.004-3.751-.116-12.895-.665-20.32-1.219-21.022-1.569-49.537-2.986-60.1-2.986-8.985-.001-9.85.182-13.5 2.857m842.58 29.225c-.021 9.465 1.474 49.844 3.238 87.417.645 13.75 1.445 32.2 1.776 41l.603 16 .211-14c.115-7.7-.254-23.9-.822-36-.567-12.1-1.695-39.961-2.506-61.914-.811-21.953-1.701-40.14-1.977-40.417-.277-.276-.512 3.285-.523 7.914m-929.48 57.98c-4.069 3.149-10.874 10.069-24.524 24.937-6.312 6.875-11.814 12.65-12.226 12.833-.412.184-.75.647-.75 1.029 0 .382 50.873.731 113.051.776l113.051.08-.301-20.109c-.178-11.885-.71-20.409-1.301-20.844-1.59-1.168-74.948-.919-78.185.265-1.548.567-4.558 2.93-6.688 5.25-3.834 4.178-3.846 4.183-1.199.47 1.471-2.062 2.538-3.784 2.373-3.825-.662-.164-51.824-1.866-75.301-2.505l-25-.679-3 2.322m-49.022 49.4c-8.511 8.527-13.964 14.442-24.478 26.551-3.575 4.117-7.4 8.259-8.5 9.203-1.94 1.665-1.864 1.718 2.5 1.765 31.479.343 83.473 3.371 104 6.057 7.804 1.021 96.688 2.907 138.598 2.941l24.098.02.652-10.656c.359-5.86.652-17.74.652-26.399v-15.744l-12.25-.572c-6.737-.315-33.175-.796-58.75-1.068l-46.5-.495-12 12.257c-6.6 6.741-10.204 10.214-8.009 7.717 2.195-2.497 6.67-7.34 9.944-10.763 3.274-3.422 5.617-6.558 5.207-6.968-.41-.41-17.71-.879-38.444-1.042-20.734-.163-44.673-.419-53.198-.569l-15.5-.273-8.022 8.038m-38.596 41.287a5.846 5.846 0 0 0-.032 1.404c.047.36-.687 1.26-1.632 2-1.581 1.239-1.599 1.194-.218-.567 1.253-1.597 1.265-1.835.071-1.44-.785.26-1.91 1.327-2.5 2.372-.589 1.045-2.088 2.742-3.331 3.771-1.242 1.029-1.958 2.397-1.589 3.04.368.644.288.823-.178.4-1.104-1.004-8.58 6.288-7.777 7.587.337.546.155.709-.405.363-1.249-.772-8.446 6.801-7.482 7.873.38.422.202.489-.396.149-.599-.341-2.762 1.095-4.808 3.19l-3.72 3.81 7.307.706c9.149.883 76.874 2.508 106.558 2.556 16.007.026 22.25.357 22.25 1.18 0 .852-16.72.985-65.75.521-36.162-.342-67.674-.9-70.026-1.24l-4.276-.618-11.224 11.364c-12.229 12.381-26.724 27.592-26.724 28.045 0 .156 39.859.167 88.575.023 79.936-.235 88.544-.108 88.25 1.305-.292 1.407-9.382 1.557-89.909 1.486l-89.585-.078-2.915 2.241c-4.7 3.614-17.524 16.664-24.867 25.307-3.739 4.4-7.87 9.237-9.181 10.75l-2.383 2.75h88.573c69.027 0 89.056-.276 90.758-1.25 2.741-1.569 39.678-1.802 39.687-.25.003.616-7.504 1.192-19.537 1.5-14.546.372-19.748.833-20.346 1.803-.651 1.055-17.272 1.302-87.212 1.297-47.524-.004-88.639.365-91.366.82-4.775.796-5.608 1.489-22.592 18.799l-17.635 17.973 54.593.904c67.955 1.125 111.848 1.152 128.092.077 6.875-.455 27.034-.505 44.797-.112 28.937.639 32.264.881 31.986 2.326-.186.968-1.305 1.613-2.797 1.613-1.367 0-18.283-.371-37.591-.824-40.319-.946-39.219-1.12-48.31 7.619l-5.414 5.205 3.664-4.603c2.016-2.532 3.665-4.826 3.665-5.099 0-1.265-154.932-3.433-169.039-2.365l-9.538.722-6.976 6.672c-3.837 3.67-11.457 11.623-16.933 17.673-5.477 6.05-11.558 12.575-13.514 14.5l-3.557 3.5 92.028-.12c61.531-.08 93.355-.473 96.029-1.184 2.54-.676 24.807-1.171 61-1.355 49.689-.252 57-.1 57 1.185 0 1.277-8.085 1.541-60.5 1.974-51.003.422-60.987.735-63.603 2-2.676 1.294-8.097 1.394-39.5.728-20.018-.424-60.733-.649-90.476-.5l-54.079.272-3.921 2.985c-2.157 1.642-11.757 10.754-21.334 20.25L1006.675 1064l94.912.012c52.202.006 130.801.001 174.663-.012 75.493-.022 79.75.071 79.75 1.738-.001 1.675-8.446 1.766-171.75 1.833-136.999.057-172.526.332-175.584 1.356-2.108.706-5.906 3.214-8.44 5.574-2.533 2.36-5.193 4.065-5.91 3.79-.718-.275-1.026-.951-.685-1.503.391-.633.895-.555 1.369.212s.978.845 1.369.212c.341-.552.012-1.235-.73-1.52-1.385-.532-13.101 10.798-13.184 12.75-.025.582-.643.927-1.373.767-.815-.178-1.107.284-.756 1.199.408 1.063.107 1.311-1.051.867-1.228-.471-1.461-.203-.96 1.103.364.949.289 1.495-.168 1.213-.457-.282-2.268.971-4.026 2.784l-3.196 3.297 48.202.664c26.511.365 96.953.664 156.537.664 71.557 0 108.336.339 108.336 1 0 .656-21.6 1-62.8 1-45.257 0-63.115.315-63.927 1.127-1.057 1.057-80.31 1.272-144.141.391-11.203-.155-21.553.076-23 .514-2.206.667-1.873.81 2.059.882 4.472.082 8.175 2.086 3.854 2.086-1.755 0-1.992.461-1.545 3 .474 2.688-.68 4.169-1.753 2.25-.23-.412-.261-.133-.068.621s-.796 2.518-2.198 3.92c-1.676 1.677-2.166 2.786-1.431 3.24 1.404.867-1.22 1.969-4.691 1.969-1.362 0-2.218.419-1.902.931.317.512.07 1.243-.547 1.625-.796.492-.728.945.233 1.554 1.079.683 1.024.863-.271.875-2.259.021-4.413 2.662-2.664 3.268.711.246-.174.776-1.967 1.178-5.151 1.156-2.749 2.56 4.568 2.669 4.81.071 5.988.32 4.191.885-2.429.764-2.4.81 1 1.608l3.5.822-3 .674c-4.759 1.069 113.628.829 127.5-.258 6.875-.539 59.525-1.311 117-1.716 70.252-.494 105.517-1.088 107.602-1.813 8.116-2.82 56.199-3.518 217.648-3.16 121.302.268 161.75.071 161.75-.79 0-1.796-6.211-18.593-7.803-21.102-.785-1.237-2.208-2.25-3.162-2.25-1.348 0-7.798-3.917-10.973-6.663-.24-.209-.542-61.834-.67-136.945-.127-75.111-.53-136.864-.895-137.229-.364-.364-36.738-.983-80.83-1.374-44.42-.394-83.065-1.157-86.667-1.712-3.575-.55-32.825-1.443-65-1.983-69.782-1.172-90.165-1.855-95.505-3.201-2.197-.553-5.694-1.436-7.771-1.961-12.974-3.278-103.43-7.792-103.842-5.182m126.605 65.845c-.995 31.838-.074 113.145 1.318 116.405.588 1.375 1.097 1.873 1.132 1.106.034-.767 8.281-9.767 18.326-20 27.809-28.331 56.767-60.295 85.237-94.085 4.95-5.875 11.362-13.481 14.25-16.903 2.888-3.422 5.25-6.591 5.25-7.043 0-.451-27.338-1.041-60.75-1.311s-61.486-.806-62.386-1.191c-1.477-.632-1.708 1.606-2.377 23.022m161.722 8.688.291 31.362 6.01 5.563c5.515 5.105 12.935 12.559 45.49 45.699 39.294 40 69.598 70.093 70.582 70.093.83 0 1.196-9.702 1.342-35.552l.201-35.552-18.425-18.198c-10.133-10.009-25.304-25.623-33.713-34.698-21.22-22.902-56.801-57.937-59.362-58.452-1.169-.235-4.506-.697-7.416-1.027l-5.29-.601.29 31.363m40.895-28.274c1.432 1.07 9.517 9.268 17.967 18.218 8.449 8.95 25.227 26.468 37.284 38.928 12.057 12.461 22.804 24.048 23.882 25.75 1.078 1.702 2.659 3.095 3.515 3.095 1.358 0 1.472-1.545.902-12.157-.36-6.686-.654-26.486-.654-44V856l-42.75.032c-42.58.031-42.74.039-40.146 1.977m-78.296 31.332c-7.677 6.71-14.488 14.031-32.247 34.659-5.919 6.875-17.17 18.8-25.004 26.5-7.834 7.7-24.028 24.482-35.988 37.293-11.96 12.812-23.506 24.405-25.657 25.763l-3.912 2.469V1098H1518.807l.501-5.25c.275-2.888.385-18.76.244-35.273l-.256-30.023-9.792-12.977c-5.385-7.137-14.114-18.107-19.398-24.378-13.117-15.567-25.031-30.585-29.463-37.14l-3.691-5.459 2.274-1.75a156.662 156.662 0 0 0 3.482-2.75c.664-.55 1.902-1 2.75-1 .872 0 1.542-.863 1.542-1.986 0-1.209 1.565-3.021 4-4.633 2.2-1.456 4.002-2.924 4.004-3.264.002-.339 2.814-2.86 6.25-5.602 3.435-2.741 6.471-5.216 6.746-5.5 2.929-3.018 14.05-12.015 14.852-12.015.575 0 2.259-1.125 3.743-2.5 1.483-1.375 3.194-2.508 3.801-2.518 2.069-.033 5.604-9.307 5.604-14.703 0-2.838-.424-5.423-.942-5.743-.518-.32-4.23 2.292-8.25 5.805M2112.11 990c-.068 7.975-.346 17.65-.617 21.5-.405 5.75-.304 6.464.568 4 1.505-4.254 2.285-27.944 1.136-34.5-.842-4.809-.979-3.679-1.087 9M1428 993.219c0 1.111 6.614 10.015 12.093 16.281 5.036 5.759 13.314 15.01 14.606 16.321.715.727 1.301 1.632 1.301 2.011 0 .378 1.017 1.809 2.26 3.178 10.095 11.125 31.156 37.352 36.931 45.99.919 1.375 2.859 3.85 4.311 5.5 4.424 5.028-2.718-5.474-12.439-18.291-4.709-6.209-10.089-13.409-11.953-16-1.865-2.59-5.727-7.634-8.584-11.209-2.857-3.575-6.731-8.554-8.61-11.064-5.258-7.025-12.322-14.667-11.524-12.466.943 2.602-.157 1.44-2.23-2.357-.914-1.674-4.234-6.381-7.378-10.459-5.476-7.103-8.784-9.903-8.784-7.435m115.589 65.596c-.378 6.977-.619 18.873-.537 26.435l.15 13.75H1586.713l-11.652-11.75c-14.357-14.478-23.315-25.673-27.553-34.435l-3.233-6.685-.686 12.685m-190.923 31.919c-.259.421-.781 3.016-1.159 5.766-.723 5.264-3.251 12.963-5.911 18-.871 1.65-1.584 3.675-1.584 4.5 0 .825.588.375 1.307-1 .718-1.375 2.995-5.714 5.06-9.641 2.73-5.192 3.814-8.557 3.971-12.325.199-4.788-.549-7.144-1.684-5.3m-229.53 51.805c-2.437 2.051-3.543 2.454-4.396 1.601-.832-.832-18.56-1.105-65.69-1.009-82.617.168-110.219.86-110.855 2.778-.322.969.044 1.213 1.169.782.9-.346 1.636-.255 1.636.201s-2.311 1.103-5.136 1.438c-5.256.622-7.339 1.596-5.114 2.39 2.26.807 1.305 2.279-1.5 2.312-2.61.03-2.653.105-.847 1.472 1.712 1.296 1.738 1.505.256 2.073-.906.348-1.399 1.035-1.094 1.528.304.492-.599.895-2.006.895-1.407 0-2.559-.45-2.559-1s-.45-1-1-1c-2.143 0-.855 1.998 1.702 2.64 2.529.635 2.391.769-2.146 2.092-3.976 1.16-4.993 1.178-5.657.105-.501-.811-.224-1.635.73-2.169 1.496-.837 7.371-6.644 7.371-7.285 0-.176-.753-.031-1.674.322-1.305.501-1.52.243-.977-1.173.608-1.583.489-1.642-.936-.46-1.016.843-1.213 1.495-.523 1.725.611.203 1.11.83 1.11 1.393 0 .563-.652.774-1.449.468-.969-.372-1.265-.076-.893.893.306.797.095 1.449-.468 1.449-.563 0-1.195-.516-1.406-1.147-.21-.632-1.791.63-3.512 2.803-3.008 3.799-3.055 3.999-1.201 5.156 1.167.729 1.929.807 1.929.196 0-.554.402-1.008.894-1.008s.83 1.053.75 2.341c-.108 1.758-.642 2.253-2.144 1.989-1.1-.194-1.435-.084-.744.244 1.901.903.447 2.426-2.315 2.426-1.556 0-2.441.572-2.441 1.576 0 1.28-.947 1.501-5.024 1.176-3.314-.264-4.687-.063-4.035.589.653.653.405 1.433-.726 2.292-2.471 1.878-4.104 1.611-1.715-.28 1.1-.87 1.325-1.306.5-.968-.825.337-2.288.891-3.25 1.231-2.016.711-2.35 2.35-.5 2.454.688.039.371.414-.704.835-1.074.42 16.701 1.058 39.5 1.416 22.8.359 63.432 1.144 90.294 1.744 34.48.771 50.209.78 53.5.031 3.189-.726 74.585-1.145 226.16-1.328l221.5-.268-.333-18.5c-.183-10.174-.558-18.724-.833-19-.579-.58-124.749-1.698-286.888-2.584l-113.053-.617-3.257 2.74m1260.927 70.044c.043 46.318.387 68.108 1.049 66.449 1.039-2.604.507-133.746-.547-134.8-.311-.311-.536 30.447-.502 68.351m-125.979-51.146c1.283 1.756 1.239 1.871-.475 1.227-1.576-.591-1.689-.465-.677.754.668.805 1.93 1.188 2.805.853 1.055-.405 1.348-.217.868.559-.398.644-.246 1.17.336 1.17.582 0 .946.378.809.839-.409 1.374 6.027 6.331 6.734 5.187.941-1.522-.332-3.022-2.016-2.375-.838.321-1.489-.02-1.517-.794-.027-.746-1.902-3.157-4.166-5.357-2.264-2.2-3.479-3.128-2.701-2.063M1080.75 1187.5c-2.062 2.199-3.75 4.321-3.75 4.714 0 .394-1.013 1.238-2.25 1.876-1.755.905-1.535.407 1-2.262 1.787-1.883 3.25-3.641 3.25-3.906 0-.266-3.263-.591-7.25-.721s-17.15-.662-29.25-1.181c-28.794-1.235-136.646-2.426-139.438-1.54-1.813.576-1.96.938-.9 2.215 1.115 1.343.611 1.483-4.198 1.166-3.987-.263-5.396-.023-5.214.889.162.81-.983 1.25-3.25 1.25-2.384 0-3.5.46-3.5 1.443 0 .794-1.35 2.241-3 3.216-1.65.975-3 2.152-3 2.616 0 .463-.45.565-1 .225-1.294-.799-1.294.748 0 2.3.714.857.67.927-.152.248-.793-.655-2.545.517-5.609 3.75-2.452 2.586-4.097 4.027-3.656 3.202.694-1.299.571-1.313-.915-.107-.944.765-1.487 1.621-1.208 1.901.74.74-2.789 3.121-3.748 2.528-.445-.275-.225-1.247.489-2.161 1.159-1.482 1.112-1.515-.43-.306-1.278 1.001-1.479 1.822-.771 3.145.699 1.307.517 2.156-.675 3.145-1.879 1.56-2.286 1.524-3.448-.31-.633-.998-.85-1.02-.862-.085-.008.688-.492 1.25-1.074 1.25-.582 0-.738-.52-.346-1.155.472-.763.271-.88-.592-.347-1.02.63-.902 1.103.537 2.155 1.793 1.311 1.732 1.461-.707 1.722-.641.069-1.375.75-1.629 1.514-.308.923 0 1.15.916.676.759-.392.599-.073-.354.71-.954.782-1.517 1.641-1.25 1.907.266.267-.184.485-1 .485-1.137 0-1.22-.318-.358-1.358.62-.746.842-1.643.493-1.991-.348-.349-.075-1.35.608-2.226 1.096-1.406 1.038-1.433-.498-.229-.956.75-1.524 1.712-1.261 2.137.263.425-.278 1.387-1.203 2.137-1.445 1.172-1.563 1.153-.842-.137.461-.825-1.133.3-3.543 2.5s-4.463 4-4.562 4l32.984.242c18.241.134 50.941.693 72.666 1.243 49.704 1.258 83.56 1.288 87.776.079 1.794-.514 3.047-.587 2.784-.161-.928 1.501 65.771 2.095 246.94 2.199 100.65.058 190.374.396 199.386.751l16.386.647 2.357-3.5c1.297-1.925 5.173-6.342 8.614-9.815 6.417-6.476 6.303-6.432 12.797-4.998 1.103.244 1.588-1.788 2.198-9.187.43-5.225.665-12.425.522-16l-.26-6.5h-442l-3.75 4M2299 1202.026c0 .6-.445.817-.989.481-.566-.35-.734.051-.393.941.328.854 1.249 1.552 2.048 1.552.843 0 1.153.484.739 1.155-.475.768-.271.88.61.335.973-.601 1.148-.357.658.92-.839 2.186 1.603 4.914 3.078 3.439.698-.698 1.268-.628 1.791.218.467.757.357.988-.283.593-.577-.357-1.307.024-1.623.846-.726 1.891.745 1.944 2.291.083.938-1.132.267-2.429-3.378-6.534-2.502-2.817-4.549-4.63-4.549-4.029M838.998 1262.5c-.129.55-.182 1.338-.116 1.75.065.412-.782.75-1.882.75-1.333 0-2 .667-2 2 0 1.816.621 1.987 6.75 1.864 3.712-.075 5.703-.336 4.424-.58-1.508-.287-2.135-.943-1.782-1.864.378-.983-.191-1.42-1.85-1.42-1.44 0-2.578-.698-2.853-1.75-.251-.963-.562-1.3-.691-.75m1704.653 150.095c-.762 9.026-3.398 15.499-8.45 20.755-2.036 2.117-10.676 9.305-19.201 15.973-30.076 23.525-57.315 48.918-75.157 70.066-26.657 31.595-36.475 44.903-55.576 75.333-22.671 36.118-37.829 67.671-50.574 105.278-5.472 16.147-11.709 40.642-12.544 49.262-.816 8.424.2 12.75 1.318 5.619 3.497-22.288 7.774-38.197 16.772-62.381 12.678-34.076 26.891-63.576 40.71-84.5 3.088-4.675 7.368-11.425 9.512-15 16.813-28.036 30.373-45.641 63.164-82 13.271-14.716 14.702-16.112 33.875-33.041 13.683-12.081 23.328-19.783 27.5-21.96 1.375-.717 4.975-2.934 8-4.926 6.703-4.415 16.38-8.229 18.753-7.391 5.278 1.864 25.713 21.886 35.027 34.318 3.09 4.125 7.666 10.051 10.169 13.168 5.604 6.979 11.816 15.769 15.654 22.147a4013.71 4013.71 0 0 0 3.918 6.5c5.289 8.723 11.292 18.902 12.681 21.501.936 1.751 1.749 2.734 1.806 2.184.057-.55.953 1.025 1.992 3.5 1.039 2.475 1.913 3.722 1.944 2.771.031-.951-4.57-10.851-10.225-22-15.04-29.656-27.504-48.858-46.371-71.441-10.188-12.196-14.847-16.503-20.626-19.065-2.724-1.207-3.599-2.106-3.135-3.22 2.212-5.311 3.396-23.319 1.806-27.463-1.251-3.259-2.119-1.355-2.742 6.013m-719.987 96.057c-.365 28.972-.664 137.582-.664 241.356v188.678l51.564.714c28.361.392 76.286.392 106.5 0l54.936-.713-.002-215.094c-.001-118.301-.298-226.893-.66-241.316l-.658-26.224-105.176-.039-105.177-.04-.663 52.678m-285.113 21.598c-.375 21.588-.541 55.166-.367 74.62l.316 35.37 4.863-7.678c2.675-4.223 9.652-12.714 15.505-18.87 5.853-6.156 12.641-13.442 15.084-16.192 2.443-2.75 9.466-10.4 15.607-17s14.252-15.6 18.024-20c3.773-4.4 9.157-10.475 11.966-13.5 10.394-11.195 14.436-15.876 27.856-32.26 7.55-9.219 15.273-17.994 17.161-19.5 1.889-1.507 3.434-3.078 3.434-3.49 0-.412-28.972-.75-64.383-.75h-64.383l-.683 39.25m-225.079-9.5c-.015 15.813-.426 79.487-.914 141.5l-.887 112.75h42.088l.653-43.25c.601-39.813 1.804-110.866 3.437-203.001l.651-36.751-22.5.001-22.5.001-.028 28.75m135.902-24.082c-1.664 2.658-7.301 10.232-12.525 16.832-10.881 13.746-16.849 23.051-16.849 26.27 0 1.226.338 2.23.751 2.23s3.307 2.398 6.431 5.328l5.68 5.329-2.568 4.421c-3.391 5.839-1.692 4.039 11.547-12.238 10.172-12.506 24.731-26.84 27.262-26.84 2.708 0 12.732 10.436 29.762 30.985l18.635 22.485.262-38.89c.144-21.389-.006-39.157-.332-39.485-.327-.327-15.092-.744-32.812-.927l-32.217-.332-3.027 4.832m241.994-3.227c-3.075 1.338-5.313 3.819-20.368 22.577-4.125 5.139-10.65 12.94-14.5 17.334-3.85 4.394-10.782 12.3-15.404 17.569a16996.603 16996.603 0 0 0-21 23.998c-6.928 7.93-16.236 18.505-20.684 23.5-28.826 32.363-57.412 67.254-57.412 70.073 0 .378 1.877-1.715 4.172-4.652 7.13-9.127 14.947-16.702 16.855-16.335.97.187 2.71-.543 3.868-1.622 3.823-3.561 2.211-.913-6.749 11.085-4.87 6.522-8.358 11.657-7.75 11.412.607-.245 3.354-3.352 6.104-6.904 2.75-3.551 5.338-6.462 5.75-6.467.412-.005.75-.536.75-1.18 0-1.84 3.055-4.745 4.434-4.216.685.263 1.88-.33 2.656-1.317 1.29-1.643 1.259-1.677-.364-.403-2.895 2.272-2.945.655-.061-1.972 1.462-1.332 2.287-1.746 1.835-.921-.452.825.342.44 1.765-.855 1.57-1.429 3.107-2.059 3.911-1.603 1.004.57 1.051.455.192-.478-.847-.919-.766-1.963.323-4.146 1.907-3.822 2.72-3.683 4.85.832.973 2.063 4.399 7.67 7.614 12.462 3.215 4.791 5.845 9.011 5.845 9.378 0 .367-3.749 4.547-8.332 9.289-4.583 4.741-11.591 12.671-15.575 17.621l-7.243 9 6.786-7.5c7.082-7.828 19.469-20.204 38.035-38 6.024-5.775 26.356-26.338 45.181-45.695 30.961-31.836 37.183-37.603 38.812-35.975 1.793 1.793-23.353 34.135-49.384 63.515-4.554 5.14-8.28 9.682-8.28 10.094 0 .412 3.533 3.73 7.851 7.374 12.878 10.867 23.674 21.818 27.59 27.985l3.682 5.798-3.062 3.487c-3.551 4.045-4.038 5.584-.891 2.822 1.947-1.71 2.104-1.726 1.531-.155-.357.978-.163 1.75.437 1.75.592 0 .817.675.5 1.5-.79 2.059 2.982 2.001 4.138-.064.742-1.325 1.398-1.071 4.3 1.668 1.883 1.777 4.174 3.295 5.091 3.372 2.368.2 4.833 2.474 4.833 4.459 0 .93-1.42 3.013-3.155 4.628-1.735 1.615-2.833 2.375-2.441 1.687.393-.687.237-1.25-.345-1.25s-1.059.702-1.059 1.559-.45 1.281-1 .941c-.995-.615-1.413.741-1.043 3.386.125.897-.38 1.166-1.434.761-.954-.366-1.373-.213-1.013.37.338.547-1.047 3.023-3.079 5.502-3.164 3.861-3.926 4.326-5.312 3.244-1.405-1.096-1.454-1.051-.373.335 1.023 1.311.919 1.895-.581 3.252-1.005.91-2.2 1.316-2.656.902-.457-.414-.548-.258-.204.347.344.604-.146 1.954-1.09 3-.943 1.045-5.706 6.401-10.584 11.901-4.878 5.5-13.637 14.842-19.463 20.761l-10.594 10.76 33.963-.649c18.68-.357 34.188-.85 34.463-1.094.728-.647 1.202-271.99.483-277.028-.654-4.587-1.323-4.894-6.115-2.809m-893.821 9.298c-.327.851-.464 1.677-.305 1.836.159.159 51.47.615 114.024 1.014l113.734.724v-5.29l-113.43.084c-101.402.075-113.492.248-114.023 1.632m-.547 52.116c0 1.726 1.98 1.867 34.75 2.485 19.112.36 70.188.953 113.5 1.318l78.75.663V1555l-62.25-.006c-58.719-.006-94.189-.373-143.5-1.489-20.101-.454-21.25-.381-21.25 1.35m1135 10.588c0 1.555-6.749 9.715-22.235 26.883-16.131 17.883-11.228 15.78 7.091-3.041l16.755-17.216 13.765 13.772c7.572 7.574 14.16 14.408 14.641 15.186.481.778 1.157 1.132 1.502.787 1.343-1.343-2.835-6.838-15.035-19.775-6.982-7.403-13.085-14.491-13.564-15.75-.965-2.537-2.92-3.104-2.92-.846m455.772 34.118c-1.182 1.183 1.687 7.186 14.546 30.439 19.378 35.041 29.142 50.451 48.945 77.25 5.995 8.112 11.538 14.75 12.319 14.75 2.334 0 1.654-1.56-3.119-7.152-2.495-2.923-7.946-10.272-12.113-16.331-21.597-31.405-31.859-48.299-48.609-80.017-9.093-17.22-10.872-20.035-11.969-18.939m-1591.233 3.68c.387 1.007 2.277 1.737 5.282 2.038 2.573.258 32.129.523 65.679.588 33.55.065 82.712.419 109.25.787l48.25.668V1603h-63.336c-34.834 0-86.373-.299-114.531-.664-46.267-.6-51.138-.513-50.594.905m1873.906 8.536c-2.42 2.157-3.016 3.45-2.868 6.223.303 5.665.379 6 1.354 6 .512 0 .761-2.362.553-5.25-.277-3.846-.111-4.782.619-3.5.548.963 1.676 1.75 2.506 1.75.83 0 1.226-.457.881-1.016-.346-.559-1.047-.758-1.559-.441-.512.316-.931-.153-.931-1.043 0-.89.359-1.396.798-1.125.439.271 1.451.03 2.25-.535 1.184-.839 1.129-.925-.298-.466-.963.31-1.75.15-1.75-.356 0-.505.787-1.377 1.75-1.938.963-.561 1.3-1.021.75-1.023-.55-.002-2.375 1.222-4.055 2.72m9.691 9.914c-.075 1.205-.581 2.466-1.125 2.802-.579.358-.747-.134-.405-1.191.438-1.354.342-1.465-.384-.449-.754 1.054-1.438 1.102-3.095.215-1.731-.926-2.127-.858-2.127.365 0 1.009.576 1.294 1.75.866 1.533-.559 1.505-.359-.224 1.608-1.086 1.236-2.136 1.762-2.334 1.17-.197-.592-1.784-1.016-3.525-.941-2.354.101-2.589.248-.917.57 2.443.47 3.125 2.294.857 2.294-2.306 0-2.604 2.693-.508 4.589 1.781 1.613 2.108 1.632 3.528.212 1.213-1.212 1.283-1.738.314-2.337-.866-.536-.999-.366-.431.551.602.975.356 1.148-.928.655-.96-.369-1.934-.67-2.164-.67-.23 0-.418-.45-.418-1 0-1.385 3.343-1.257 4.783.183.651.651 1.516.852 1.921.446.406-.406.169-1.089-.526-1.519-.967-.597-.788-1.35.758-3.196 1.724-2.057 2.172-2.192 3.028-.914 1.362 2.033 1.294 2.599-.535 4.429-.865.864-1.145 1.571-.623 1.571s1.505-.67 2.185-1.489c.68-.819 1.635-1.242 2.122-.941.488.301.887-.154.887-1.011 0-.857-.73-1.559-1.622-1.559-1.302 0-1.386-.286-.424-1.445.66-.795 1.001-2.482.759-3.75-.429-2.243-.444-2.247-.577-.114M797 1654c0 .648 13.657 1.039 38.75 1.111 21.313.061 69.125.398 106.25.75 76.311.722 82 .622 82-1.443 0-1.216-16.197-1.418-113.5-1.418-75 0-113.5.339-113.5 1m1041.64 75.678c-.376 24.023-.307 44.055.155 44.517.964.964 13.979 2.698 14.716 1.961.269-.269.489-19.722.489-43.23v-42.74l-6.668-2.093c-3.668-1.151-6.97-2.093-7.338-2.093-.369 0-.978 19.655-1.354 43.678M797 1705.883c0 .486 1.014 1.078 2.252 1.314 4.367.835 224.748-.468 224.748-1.328 0-.487-49.928-.869-113.5-.869-65.015 0-113.5.377-113.5.883m1534.059 27.635c-.064 2.187 2.192 5.787 10.242 16.345 2.86 3.749 10.113 13.302 16.119 21.227 13.64 18.001 28.467 36.301 44.082 54.41 12.622 14.638 20.215 23.944 22.131 27.121.623 1.033 1.383 1.644 1.688 1.357 1.241-1.165-3.034-7.472-11.85-17.485-5.122-5.818-11.93-13.821-15.128-17.785-3.198-3.965-7.902-9.683-10.455-12.708-4.644-5.503-7.11-8.666-19.885-25.5a3056.239 3056.239 0 0 0-12.667-16.559c-9.047-11.719-21.707-28.535-23.027-30.588-1.141-1.775-1.194-1.768-1.25.165M2651 1760.892c-11.825 5.364-26.675 12.364-33 15.556-52.771 26.632-104.852 61.078-127.721 84.477-9.789 10.016-7.382 9.237 3.971-1.285 11.347-10.516 14.067-12.723 30.75-24.944 14.878-10.899 56.383-37.696 58.386-37.696.239 0 3.513-1.737 7.274-3.859 19.291-10.885 31.63-17.105 61.84-31.171 18.806-8.757 23.253-11.07 20.95-10.9-.522.039-10.625 4.459-22.45 9.822m-1791.25-8.22c-39.953.222-61.75.694-61.75 1.336 0 .649 32.235.996 93.25 1.003 51.288.006 102.138.295 113 .643 17.912.574 19.75.48 19.75-1.01 0-1.474-2.209-1.644-21.337-1.644-11.736 0-34.798-.151-51.25-.336-16.452-.184-57.701-.181-91.663.008m1431.018 67.951c-3.705 9.258-8.66 36.125-8.416 45.628.081 3.163-.182 5.863-.584 6-.74.251-1.202 5.834-.921 11.121.13 2.434.382 2.683 1.653 1.628.825-.685 1.5-.91 1.5-.5 0 .41.675.185 1.5-.5 1.258-1.044 1.5-.881 1.5 1.012 0 2.239.017 2.236 2.026-.318 1.114-1.417 2.914-2.858 4-3.202 1.472-.468 1.994-1.563 2.053-4.309.087-4.082.445-3.548 1.384 2.067.345 2.063.947 3.75 1.338 3.75.631 0 1.42-7.012 1.576-14 .031-1.375.489-2.801 1.017-3.169.529-.368 1.083-2.618 1.231-5 1.503-24.172 1.536-26.608.417-30.719-.733-2.697-2.835-6.126-5.451-8.895l-4.258-4.506-1.565 3.912M926.38 1908.379c.635 2.528 6.243 31.17 7.318 37.371l.564 3.25h35.069c26.046 0 34.779.29 33.94 1.129-.772.772-11.493 1.278-33.95 1.602-18.051.261-32.972.617-33.157.791-.593.559 5.708 32.535 9.009 45.719 3.045 12.158 3.137 13.095 2.024 20.5-3.67 24.413-10.221 76.02-10.188 80.259.011 1.464 1.574 4.224 3.773 6.661 8.128 9.008 58.929 81.66 60.961 87.18.336.912 1.662 3.347 2.946 5.409 1.285 2.063 2.05 3.75 1.701 3.75-.349 0-.079.67.601 1.489.68.819 1.62 1.251 2.09.961 1.207-.746-.017-6.085-2.74-11.95-2.703-5.822-3.075-8.354-.97-6.607 1.012.84.882-.343-.5-4.533-1.029-3.119-1.871-6.056-1.871-6.526 0-.997-1.405-4.185-10.5-23.834-3.691-7.975-8.272-19.155-10.179-24.845-3.382-10.09-8.767-36.618-8.114-39.974.179-.925 1.151 2.819 2.16 8.319 4.374 23.855 7.882 34.389 20.067 60.258 8.674 18.415 17.008 45.713 16.864 55.242-.054 3.577.093 3.987.717 2 .638-2.03.804-1.618.885 2.191.055 2.58.55 4.969 1.1 5.309.55.34 1 1.491 1 2.559s.45 1.941 1 1.941 1 1.26 1 2.8c0 1.54.385 3.227.855 3.75 1.054 1.171 5.819 16.577 6.715 21.711 1.239 7.099 2.456 4.977 1.912-3.336-.295-4.512-.737-8.529-.983-8.926-.541-.876-1.215-6.006-2.101-15.999-.365-4.125-1.056-8.26-1.534-9.189-.493-.959-.492-1.923.003-2.229.48-.296 1.638 2.039 2.573 5.189 2.969 10.006 3.6 10.36 3.075 1.729-.733-12.055-.795-16.362-.526-36.5.319-23.921 1.579-17.371 2.535 13.173.382 12.217.81 23.266.951 24.553.457 4.158 1.305 3.524 1.889-1.412 2.19-18.512 2.895-36.54 2.452-62.742-.326-19.282-.198-26.378.378-21.072 1.022 9.401 1.524 63.023.806 86-.382 12.237-.19 16.47.817 18 1.208 1.836 1.274 1.745.804-1.104-.282-1.707.003-3.62.633-4.25.648-.648.716-1.146.158-1.146-.543 0-1.044-1.912-1.113-4.25-.116-3.898-.035-4.043.975-1.75l1.102 2.5.378-2.75c.538-3.904 1.979-3.43 1.519.5-.756 6.462 1.491.258 6.069-16.75 2.516-9.35 7.461-26.45 10.989-38 3.528-11.55 7.249-24.434 8.268-28.632 1.431-5.894 2.199-7.524 3.377-7.156 1.193.373 1.237.271.201-.472-1.387-.994-.734-7.778.843-8.752.436-.27.586.522.332 1.761-.267 1.301.195.831 1.093-1.114.855-1.85 1.555-3.961 1.555-4.691 0-.729.521-1.648 1.158-2.041.793-.49.98-.037.593 1.44-.31 1.185-.155 2.407.343 2.715.498.308.906-.422.906-1.621 0-1.765.27-1.958 1.411-1.011 1.083.899 1.589.883 2.177-.068.428-.692.25-1.412-.403-1.63-.802-.267-.869-.95-.212-2.177.526-.984.675-2.069.331-2.413-.344-.344.209-1.548 1.229-2.675 1.81-2 1.808-2.034-.089-1.424-1.717.551-1.762.469-.382-.707 1.662-1.418 3.37-4.809 3.083-6.124-.095-.436 3.208-7.789 7.34-16.34 7.577-15.68 10.341-22.77 14.984-38.432 1.396-4.71 3.197-9.435 4.003-10.5 1.331-1.761 1.374-1.62.475 1.564-3.143 11.121-5.077 23.448-4.219 26.883 2.459 9.843-4.284 46.928-11.204 61.617-.778 1.65-3.189 6.973-5.359 11.829-2.17 4.856-4.184 8.231-4.476 7.5-.292-.731-.567.044-.61 1.721-.043 1.678-.619 3.59-1.279 4.25-.66.66-.756 1.2-.214 1.2s.985.867.985 1.927c0 1.059-.353 1.708-.785 1.441-.432-.268-.786.467-.786 1.632 0 1.292-.431 1.852-1.105 1.435-.779-.481-.956.995-.601 4.995.41 4.608.277 5.366-.705 4.022-1.009-1.379-1.138-1.03-.775 2.083.246 2.106.039 3.492-.474 3.175-.501-.31-.943.191-.981 1.113-.039.923-.43 2.577-.871 3.677-.575 1.438-.194 1.253 1.356-.658 1.186-1.461 2.156-3.111 2.156-3.666 0-.555.343-1.159.762-1.343.42-.183 4.086-5.508 8.148-11.833 4.061-6.325 8.028-12.175 8.815-13 .787-.825-.843 2.1-3.621 6.5-6.476 10.257-21.508 36.588-26.982 47.263a10964.97 10964.97 0 0 1-8.224 16c-2.301 4.466-3.817 8.675-3.587 9.957.22 1.221.066 2.013-.342 1.761-1.33-.822-1.896 3.787-.729 5.931 1.121 2.057 1.148 2.051 1.849-.412.391-1.375.763-2.05.827-1.5.063.55.507.38.988-.378 1.268-2.003 3.297-.329 2.53 2.087-.395 1.242-.259 1.801.346 1.427.546-.338 1.513.012 2.148.778.636.765.799 1.549.364 1.742-.436.193-1.917 1.648-3.292 3.233-2.237 2.58-2.279 2.768-.398 1.791 1.156-.6 4.746-4.374 7.977-8.386 10.66-13.232 23.176-26.412 33.121-34.878 5.39-4.588 13.85-11.935 18.8-16.327 14.428-12.8 14.844-13.149 14.109-11.86-.386.676-8.985 9.433-19.111 19.461-10.125 10.028-18.221 18.421-17.99 18.651.23.23-2.536 3.848-6.147 8.039s-6.823 8.295-7.138 9.12c-.315.825-3.644 5.664-7.398 10.753-3.754 5.089-6.825 9.534-6.825 9.877 0 .715 8.027-9.292 12.5-15.582 6.949-9.773 14.543-18.868 19.661-23.548 3.008-2.75 7.802-7.143 10.654-9.762 2.852-2.62 5.185-4.274 5.185-3.677s-1.899 2.74-4.22 4.762c-10.522 9.168-15.78 14.629-15.78 16.388 0 1.049.461 1.622 1.025 1.274.563-.349.901-.058.75.645-.151.704.25 1.3.892 1.325.641.025 1.316.27 1.5.545.183.275.189.431.014.347-.176-.083-3.266 2.751-6.867 6.3-3.602 3.549-6.832 6.169-7.178 5.823-.346-.347 1.093-2.208 3.197-4.137 2.105-1.928 3.572-3.761 3.26-4.073-.898-.898-7.571 6.059-7.582 7.907-.006.916-.487 1.825-1.068 2.019-1.25.416-.161 3.814 1.223 3.814.524 0 .677-.445.341-.989-.35-.566.051-.734.941-.393.854.328 1.552.132 1.552-.434 0-1.828 5.147-7.211 6.246-6.532.585.361.788.212.452-.332s1.394-2.957 3.845-5.363c2.452-2.405 4.457-4.02 4.457-3.588 0 .433 2.355-1.274 5.233-3.791 4.834-4.23 7.69-5.88 6.31-3.647-.317.512-.146 1.196.378 1.52.554.342.753-.52.474-2.055-.433-2.388-.229-2.597 2.099-2.152 2.515.48 2.534.443.792-1.521-1.744-1.966-1.733-1.986.464-.833 1.74.913 2.25.908 2.25-.021 0-.662.297-.905.66-.542.363.363 1.289-.237 2.057-1.333 1.641-2.343 4.503-2.73 3.645-.494-.317.825-.081 1.5.525 1.5.605 0 .935 1.012.733 2.25-.264 1.613-.97 2.183-2.494 2.012-2.407-.27-2.718.496-.864 2.128.694.61 1.099 1.028.901.927-.199-.1-1.652 1.137-3.229 2.75-1.577 1.613-3.224 2.933-3.66 2.933-.436 0-1.355.9-2.042 2-.687 1.1-1.835 2-2.552 2-.717 0-2.2.787-3.296 1.75-2.473 2.171-5.26 3.982-7.925 5.148-1.123.492-2.636 1.611-3.363 2.487-.728.876-1.674 1.376-2.105 1.11-.43-.266-1.041.194-1.359 1.023-.51 1.329-.229 1.325 2.395-.032 1.635-.845 2.973-2.002 2.973-2.571 0-.568.417-.775.926-.461.913.564 20.676-12.1 24.574-15.747 1.1-1.029 2.9-2.313 4-2.853s.425.493-1.5 2.297c-1.925 1.804-3.376 3.666-3.225 4.139.151.472-.113.619-.587.326-1.206-.745-5.188 2.211-5.188 3.852 0 .745-1.35 2.49-3 3.879-1.65 1.388-3 3.003-3 3.588 0 .586-.498 1.065-1.107 1.065-.616 0-.827-.729-.477-1.641.534-1.393.391-1.444-.94-.339-1.252 1.039-1.308 1.47-.273 2.126.999.634 1.01.827.047.839-.687.008-1.25.676-1.25 1.484 0 .899-.586 1.243-1.511.888-1.06-.406-1.335-.12-.922.957.37.965-.338 2.145-1.905 3.172-1.372.898-2.746 2.292-3.055 3.096-.731 1.905 8.14-4.12 27.695-18.81l15.803-11.87 3.348 2.069c1.842 1.138 3.587 2.691 3.878 3.45.326.848-1.858 3.354-5.65 6.486-3.4 2.807-6.753 5.579-7.453 6.158-.7.58-.981 1.526-.625 2.102.423.684-.14.797-1.623.327-1.988-.631-2.097-.533-.876.787.768.83 1.734 1.305 2.146 1.055.412-.25.75.023.75.605s.424 1.059.943 1.059c.518 0 .756-1.012.528-2.25-.406-2.204-.374-2.199 1.57.25 1.453 1.829 1.802 1.986 1.302.586-.473-1.325-.323-1.692.487-1.191.644.398 1.17.198 1.17-.443s-.675-.907-1.5-.59c-.825.316-1.5.125-1.5-.425 0-1.603 3.126-2.351 3.989-.955.433.701 1.288.965 1.899.587.646-.399 1.112.011 1.112.979 0 1.095-.532 1.462-1.552 1.07-.854-.327-1.314-.21-1.024.26.671 1.084-1.665 3.065-7.622 6.465-2.584 1.474-5.001 3.17-5.371 3.769-1.737 2.811 12.102-6.341 26.569-17.569 5.775-4.482 15.9-11.902 22.5-16.488 6.6-4.587 13.011-9.252 14.246-10.368 1.235-1.115 2.488-1.786 2.784-1.491.513.514-1.216 2.125-10.41 9.694-3.816 3.142-3.99 3.495-2.369 4.806 1.567 1.267 1.506 1.296-.583.28-1.93-.939-2.589-.819-3.824.695-.821 1.006-1.161 1.154-.757.329.405-.825-.456-.414-1.913.913-1.872 1.705-2.356 2.765-1.649 3.617.69.831.523 1.6-.537 2.48-1.988 1.65-3.156.5-1.508-1.486 1.885-2.272-.262-1.841-2.852.571-2.098 1.955-2.133 2.181-.523 3.358 1.621 1.186 1.61 1.33-.189 2.374-1.054.612-1.566 1.126-1.137 1.143.768.03 13.751-9.684 14.721-11.014.47-.646 4.708-2.299 6.167-2.407.366-.027.969-.351 1.338-.721.369-.369-.481-.545-1.889-.39-1.408.154-2.325-.1-2.038-.565.288-.465 1.513-.66 2.722-.433 1.21.226 2.875.466 3.7.532.825.067-.638 1.234-3.25 2.594-4.98 2.592-5.407 3.339-3.715 6.5.743 1.387.713 1.934-.107 1.934-.628 0-.883.675-.566 1.5.316.825.091 1.5-.502 1.5-.646 0-.849-1.1-.508-2.75.313-1.512.323-2.185.023-1.494-.3.691-.959 1.001-1.463.689-1.014-.626-.761 2.403.348 4.178.406.65-1.608 3.307-4.779 6.307-3.015 2.851-5.481 5.396-5.481 5.657 0 .62 5.297-3.113 11.25-7.93 2.612-2.114 4.75-3.403 4.75-2.865 0 .538-1.013 1.657-2.25 2.487-3.701 2.482-9.386 8.068-7.5 7.369 5.316-1.969 5.317-1.969 3.252-.364-1.1.854-1.742 1.81-1.428 2.124.315.314 1.439-.212 2.499-1.169 1.06-.956 2.818-1.819 3.906-1.916 1.757-.157 1.703.031-.485 1.682-1.355 1.022-2.214 2.108-1.909 2.414.819.818 9.013-5.452 8.407-6.433-.284-.459.277-1.041 1.246-1.294 1.612-.421 1.616-.47.047-.576-.943-.064-2.203.797-2.8 1.912-.597 1.115-1.524 1.757-2.06 1.425-.536-.331 1.173-2.326 3.799-4.433 4.803-3.853 7.889-4.46 4.686-.921-1.921 2.123-1.295 2.624.769.615.726-.708 3.004-2.558 5.061-4.112 2.057-1.553 3.45-3.294 3.096-3.868-.355-.574-.191-.762.364-.419 1.345.831 5.693-3.871 4.846-5.241-.365-.591-.187-1.074.395-1.074 1.163 0 1.24.222 1.485 4.296.093 1.538-.48 3.334-1.273 3.992-1.214 1.008-1.32.803-.673-1.296.884-2.868.333-2.533-1.444.879-.796 1.528-.845 2.129-.136 1.691 1.989-1.229 1.15.786-1.65 3.964-1.513 1.716.287-.062 3.999-3.953 3.711-3.89 6.749-7.535 6.75-8.1.001-1.389 5.63-7.473 6.913-7.473.564 0 .738-.749.387-1.664-.43-1.119-.256-1.427.531-.941.644.398 1.17.261 1.17-.305 0-.565.749-.74 1.664-.389 1.119.43 1.427.256.941-.531-.398-.644-.255-1.17.317-1.17.572 0 1.321-1.122 1.666-2.493.344-1.371 1.005-2.259 1.469-1.972.463.287 1.389-.504 2.056-1.757.668-1.253 1.787-2.728 2.487-3.278.701-.55 2.254-3.925 3.453-7.5 1.935-5.769 2.108-7.793 1.541-18-.352-6.325-1.288-14.2-2.081-17.5-.793-3.3-1.458-8.497-1.477-11.55-.02-3.052-.57-6.084-1.223-6.737-.915-.915-.653-1.755 1.15-3.674 2.087-2.222 2.156-2.556.644-3.136-.931-.358-1.946-.397-2.256-.088-.645.645-4.887-4.124-14.792-16.628-6.529-8.242-7.123-8.727-10-8.177-2.754.526-2.885.444-1.309-.823.963-.774 1.75-2.039 1.75-2.812 0-1.696-9.695-13.875-11.045-13.875-3.479 0 3.361-28.349 12.646-52.414.528-1.368.393-1.701-.472-1.165-1.44.889-75.451.835-85.823-.064-3.957-.342-7.387-1.125-7.623-1.74-.39-1.018 49.884-1.226 85.581-.355l9.764.238 1.522-4c2.526-6.64 11.422-35.199 15.008-48.181 3.589-12.997 9.146-28.324 10.265-28.312.994.011 5.183 13.951 7.759 25.821 1.233 5.681 2.394 10.459 2.58 10.617.186.158 27.307.46 60.27.671l59.932.384 1.306-5c.718-2.75 1.84-7.925 2.494-11.5l1.189-6.5 1.697 5.5c.933 3.025 2.469 13.15 3.413 22.5.945 9.35 2.344 20.825 3.11 25.5 1.919 11.714 1.747 20.107-.601 29.426-1.098 4.36-2.202 9.059-2.453 10.442-.549 3.026-3.009 10.719-5.706 17.845-1.086 2.868-1.792 6.018-1.569 7 .467 2.065 9.18-24.576 13.805-42.213 1.731-6.6 4.44-16.647 6.022-22.326 2.296-8.249 9.835-49.038 12.651-68.446l.547-3.772-85.884.433c-116.552.587-258.689.513-259.763-.136-.484-.291-.187-.917.659-1.39 1.267-.709 332.626-1.143 340.769-.446 1.403.12 3.06.533 3.681.917 1.524.941 1.953.037 2.769-5.834.383-2.75 1.776-11.734 3.098-19.965 1.321-8.231 2.402-15.431 2.401-16-.001-.703-21.403-1.022-66.75-.996-36.712.022-67.649.07-68.749.108-14.036.482-358.331-.541-361.879-1.074-4.855-.731-4.875-.722-4.241 1.806m507.62-.904c0 .272 1.319 7.139 2.931 15.26 1.612 8.121 3.304 17.24 3.759 20.265l.829 5.5h88.62l.143-20.5.143-20.5-48.212-.26c-26.517-.142-48.213-.037-48.213.235m1310.415 40.775c-31.456 31.965-53.705 57.751-71.4 82.75-8.92 12.601-29.062 41.278-33.211 47.282-5.75 8.322-12.028 17.087-15.067 21.034-1.616 2.099-2.712 4.043-2.435 4.319.734.734 7.219-7.827 20.936-27.635 4.761-6.875 10.907-15.65 13.657-19.5 2.751-3.85 6.263-8.792 7.803-10.983 27.461-39.043 40.542-54.695 83.166-99.516 6.8-7.151 12.182-13.001 11.961-13.001-.222 0-7.156 6.862-15.41 15.25m-1300.983 5c.258 1.237.943 7.65 1.522 14.25.58 6.6 1.313 14.813 1.629 18.25l.576 6.25H1530v-41h-87.038l.47 2.25m-359.468 14.5c1.695 3.162 5.821 8.675 9.17 12.25 3.349 3.575 5.476 5.603 4.727 4.507-.748-1.097-2.618-3.347-4.154-5-1.536-1.654-4.845-6.27-7.354-10.257-2.508-3.987-4.765-7.25-5.015-7.25s.931 2.588 2.626 5.75M957 1994.275c-6.092 2.377-8.593 4.24-7.008 5.22 1.389.858 1.267 4.846-.192 6.305-.933.933-.839 1.2.422 1.2.974 0 2.094-1.429 2.803-3.575.797-2.417 2.767-4.715 6.077-7.094 7.062-5.074 6.655-5.472-2.102-2.056m151.575-.275c1.307 1.302 10.003 1.5 65.963 1.5 35.452 0 64.459-.352 64.46-.781.001-.43-.56-.982-1.248-1.226-.687-.245-30.372-.568-65.965-.719-57.526-.244-64.548-.107-63.21 1.226m156.842 2.75c.573 1.814 2.559 27.278 2.574 33l.009 3.25 25.25.004c13.888.002 37.136.472 51.663 1.046 19.841.783 26.589.755 27.125-.111.392-.634 1.933-5.942 3.425-11.796 2.827-11.088 6.152-22.976 7.163-25.61.524-1.367-5.84-1.533-58.586-1.533-55.901 0-59.144.097-58.623 1.75m183.811-1.047-2.272.442.272 18.473.272 18.473 39.972-.067c21.984-.037 40.333-.429 40.774-.87.441-.441.678-8.868.528-18.728l-.274-17.926-38.5-.12c-21.175-.065-39.522.08-40.772.323m168.204 40.429c-.759 1.466-3.443 9.799-5.965 18.517s-4.846 16.672-5.163 17.676c-.553 1.75.771 1.802 31.81 1.256 17.812-.313 119.011-.852 224.886-1.197 186.91-.609 296.125.325 308.999 2.641 2.475.446 4.559.735 4.632.642.072-.092.453-9.617.846-21.167l.713-21-279.69-.017-279.69-.016-1.378 2.665m-344.432.044c0 .82.271 1.761.601 2.092.331.331.755 3.008.942 5.948.187 2.941.82 6.608 1.406 8.15.586 1.541.83 3.183.542 3.649a.993.993 0 0 0 .314 1.365c.461.284.79 4.59.732 9.569-.066 5.629.285 9.057.928 9.066.569.009.373.434-.436.946-.809.512-1.259 1.14-1 1.396.259.257 15.856.795 34.66 1.197 18.804.402 36.091.779 38.416.838 2.406.062 4.406.646 4.644 1.358.329.986-7.943 1.25-39.166 1.25-36.564 0-42.055.354-38.596 2.492.543.336.721 2.271.396 4.309-.325 2.034-.633 5.162-.685 6.949-.052 1.787-.455 3.25-.896 3.25s-.802.814-.802 1.809-.661 2.682-1.468 3.75c-1.627 2.151-2.072 5.893-.591 4.978.562-.348.697.934.334 3.191-.574 3.565-.507 3.69 1.227 2.272 1.728-1.413 1.797-1.308 1.182 1.8-.408 2.06-.285 3.072.327 2.693.54-.334 1.771-.772 2.735-.975.965-.202 4.556-1.1 7.981-1.995 10.498-2.743 22.331-4.279 31.94-4.148 7.808.106 9.616.457 12.197 2.366 1.78 1.316 3.282 1.832 3.642 1.25.337-.545 1.114-.991 1.728-.991.614 0 .25.842-.809 1.872-1.059 1.03-2.263 1.678-2.675 1.441-1.284-.738-.823.471.798 2.092 1.215 1.215 1.309 1.994.435 3.627-.612 1.143-.945 2.582-.74 3.197.498 1.494 9.163-11.637 12.177-18.453 3.255-7.359 10.253-25.723 13.062-34.276 6.253-19.039 11.596-36.755 11.204-37.148-.666-.665-35.685-2.199-67.936-2.975-25.119-.604-28.75-.504-28.75.799m180.072.912c-2.436.478-4.751 1.216-5.145 1.64-.688.741-1.299 6.029-2.572 22.272-.323 4.125-.897 7.725-1.275 8-.921.67-3.05 10.363-2.416 10.999.276.275 20.039.632 43.918.791l43.418.29V2036l-35.75.11c-19.662.06-37.743.5-40.178.978m786.607.662c-.241.412-2.589 7.05-5.218 14.75-4.098 12.006-4.845 15.411-5.242 23.905l-.464 9.906 6.25-.654c8.617-.9 13.975-2.637 14.088-4.565.436-7.485-1.908-23.674-5.261-36.342-1.881-7.109-2.993-8.982-4.153-7m152.957 14.1c-2.01 2.221-3.113 8.849-4.603 27.65-.61 7.7-1.518 16.25-2.018 19-.92 5.064-1.311 7.988-2.573 19.25-.385 3.438-1.029 6.25-1.431 6.25-.401 0-2.256-1.57-4.121-3.489-1.864-1.919-3.897-3.494-4.518-3.5-.62-.006-1.705-.707-2.411-1.558-.706-.85-2.673-2.47-4.372-3.6-1.699-1.129-.097.804 3.56 4.297 7.047 6.731 8.386 8.915 6.573 10.728-.829.829-.809 1.122.078 1.122.66 0 1.2-.477 1.2-1.059s.45-.781 1-.441 1 .179 1-.358c0-.536-.461-1.204-1.025-1.484-.564-.279-.451-.391.25-.247 2.115.433 1.542 3.762-1.736 10.089-3.735 7.211-4.759 9.785-3.607 9.073 1.061-.656 8.118-12.411 8.118-13.522 0-.443.692-1.38 1.537-2.082.845-.701 1.44-1.994 1.321-2.872-.389-2.872 1.284-18.45 2.695-25.097.759-3.575 1.863-13.38 2.453-21.789.662-9.421 1.81-17.655 2.993-21.457 1.056-3.392 1.786-6.303 1.621-6.467-.164-.165-1.057.539-1.984 1.563m-950.136 31.891c-.55.417-1.053 2.784-1.119 5.259-.153 5.802-1.354 16.071-2.106 18-.321.825-.707 3.525-.856 6-.149 2.475-.582 5.512-.962 6.75-.616 2.008-.329 2.266 2.676 2.4 3.021.135 2.904.222-1.133.85-5.426.844-7.17.71 32.454 2.479 34.647 1.547 33.232 1.701 36.704-3.979 2.413-3.947 2.36-2.436-.083 2.353-1.096 2.148-1.587 4.318-1.141 5.04.63 1.019 9.633 1.056 45.927.187 27.888-.667 155.805-1.08 334.641-1.08H2177v-38l-86.25-.25c-47.437-.137-154.875-.25-238.75-.25s-191.2-.391-238.5-.869l-86-.869-2.808 5.119c-1.544 2.815-2.982 5.119-3.195 5.119-.213 0 .713-2.488 2.058-5.529 1.345-3.04 2.445-5.899 2.445-6.353 0-.753-12.915-1.285-64.5-2.657-9.9-.264-18.45-.138-19 .28m803.5 4.923c-1.375.215-5.606.881-9.402 1.479l-6.901 1.089.598 17.392c.328 9.566.897 17.877 1.262 18.469.456.738 4.668.855 13.391.372 13.586-.751 17.301-.278 16.394 2.086-.45 1.174-3.335 1.449-15.199 1.448l-14.643-.001.219 27.251c.285 35.59 1.265 59.879 2.387 59.185.492-.303.926 1.162.964 3.257.052 2.795.271 3.296.825 1.882.746-1.902.765-1.902 1.502 0 .719 1.854.792 1.845 1.925-.239 1.592-2.928 6.413-6.63 6.865-5.273.197.59 2.372-1.075 4.835-3.699 8.789-9.364 13.562-13.659 19.427-17.483 6.109-3.983 8.551-4.758 8.551-2.712 0 .641.207.96.46.707.252-.253-.635-3.904-1.971-8.114-1.337-4.209-4.008-15.44-5.936-24.957-1.928-9.516-4.377-20.228-5.442-23.803-1.066-3.575-3.299-11-4.963-16.5a1826.21 1826.21 0 0 1-6.248-21.25c-3.369-11.763-3.138-11.488-8.9-10.586m346.5 13.043c-6.519 1.548-17.888 6.063-23.5 9.333-19.851 11.565-36.311 27.185-77.945 73.97-14.121 15.868-14.614 16.448-12.805 15.074 1.119-.849 1.75-.935 1.75-.238 0 .622.752.809 1.75.435 1.385-.519 1.541-.346.75.829-.55.816-.253.676.66-.313 1.736-1.878 3.377-2.475 2.383-.866-.317.512-.178 1.177.309 1.477.486.301.831-.456.766-1.681-.065-1.225.403-2.128 1.041-2.007.675.128 1.047-.794.892-2.21-.219-1.987.035-2.267 1.395-1.539.997.534 2.24.501 3.108-.082 1.161-.781 1.073-.915-.45-.681-1.043.161-2.074-.212-2.29-.827-.253-.72.562-.936 2.29-.606 2.44.467 2.639.277 2.188-2.081-.341-1.785.004-2.785 1.106-3.208 1.821-.699 2.73-.371 2.327.838-.151.454.217.521.818.149.602-.371.814-1.404.472-2.294-.341-.89-.287-1.284.121-.876.819.819 9.364-7.128 9.364-8.707 0-.544-1.647.562-3.661 2.458l-3.661 3.446 2.656-3.588c1.461-1.974 2.321-3.958 1.911-4.41-.41-.453-.248-.539.36-.193 1.28.73 6.068-3.969 5.066-4.972-.369-.369-.671-.161-.671.461s-1.012 1.67-2.25 2.329c-2.163 1.151-2.153 1.087.25-1.631 9.1-10.293 34.946-35.932 42.21-41.873 16.949-13.861 23-17.397 38.79-22.665 5.225-1.743 9.688-3.347 9.917-3.564.55-.52-4.87-.292-7.417.313m-94.583 33.73c-3.821 4.332-21.031 27.05-22.396 29.563-1.448 2.667.862-.14 9.467-11.5 4.583-6.05 10.338-13.384 12.79-16.298 5.245-6.232 5.358-7.684.139-1.765m-339.417 4.264c-10.45.111-40.6.678-67 1.261-27.708.612-166.574 1.118-328.488 1.198l-280.488.138-2.588 2.771c-1.424 1.524-7.121 9.445-12.661 17.601-5.539 8.157-11.13 15.784-12.423 16.951-1.541 1.39-4.248 2.313-7.852 2.679-6.622.672-16.308 2.725-15.704 3.329.238.239 5.332.033 11.319-.458 17.041-1.395 594.998-1.53 649.385-.152 25.025.635 47.525 1.455 50 1.824 4.347.647 4.5.789 4.5 4.164 0 3.027.322 3.493 2.417 3.493 3.063 0 3.987-2.451 1.2-3.18-5.375-1.405.36-2.32 14.549-2.32 13.126 0 15.462-.224 14.995-1.441-.304-.792-.657-9.23-.785-18.75-.127-9.52-.489-20.009-.804-23.309l-.572-6-19 .201M986.583 2156.12c.473.759.952 1.982 1.063 2.718.112.735.912 2.121 1.778 3.078.867.958 1.576 2.16 1.576 2.671 0 1.346 5.026 10.581 6.633 12.189.752.752 1.377 1.897 1.389 2.545.012.649.902 2.304 1.978 3.679 1.913 2.445 1.956 2.452 1.978.321.012-1.198-.54-2.781-1.228-3.518-1.373-1.472-2.391-3.243-9.064-15.774-2.482-4.659-5.064-8.655-5.738-8.88-.82-.273-.941.049-.365.971M2099 2194.203c-10.175.436-164.975 1.013-344 1.282-179.025.269-327.883.755-330.796 1.08-4.997.557-5.55.912-9.765 6.263-5.164 6.555-12.494 20.274-16.007 29.958-3.291 9.073-3.19 9.981 1.196 10.804 1.995.374 22.132.414 44.75.088 161.834-2.332 237.408-2.645 408.622-1.693 99.825.555 186.098 1.303 191.718 1.661 7.664.489 10.606.33 11.771-.637.854-.709 2.624-1.406 3.932-1.55 3.914-.429 6.643-1.546 6.066-2.481-.818-1.322 3.273-3.154 6.326-2.834 1.479.155 3.25-.065 3.938-.49.687-.425 1.668-.513 2.18-.197.512.317 2.039-.444 3.394-1.691 1.354-1.246 4.198-3.373 6.319-4.725 5.107-3.257 10.802-9.765 10.623-12.14-.184-2.454.575-2.398 3.392.248l2.288 2.15-.451-3.523c-.321-2.509.11-4.205 1.5-5.899 3.469-4.225 7.475-7.875 8.647-7.876.629 0 1.375-.606 1.659-1.345.318-.83 5.141-2.207 12.605-3.598 6.65-1.239 11.839-2.659 11.533-3.156-.616-.995-13.314-.903-41.44.301m-1068.007 33.316c-1.033 2.716 1.243 16.117 3.043 17.917.53.53.996 2.561 1.034 4.514.039 1.953.457 4.45.93 5.55.772 1.797.867 1.732.93-.643.038-1.454-.575-5.954-1.364-10-1.826-9.364-3.011-17.006-2.886-18.607.16-2.045-.662-1.426-1.687 1.269m-270.931 15.227c-.694 1.515-3.028 7.178-5.187 12.586-2.158 5.407-5.046 12.044-6.416 14.75-1.371 2.705-2.146 4.918-1.722 4.918.764 0 9.26-17.138 9.266-18.692.002-.444 1.361-4.137 3.019-8.206 2.889-7.09 3.664-11.079 1.04-5.356m1290.088 9.166c-.129 1.212-19.397 1.321-135.9.773-128.648-.605-330.602.314-491.874 2.238-69.199.825-73.36.977-77.5 2.816-5.984 2.659-9.643 5.94-18.54 16.622-4.187 5.026-9.687 11.048-12.224 13.38l-4.612 4.242 3.493-.992c3.873-1.099 626.568-1.197 674.007-.107 15.125.348 28.063.468 28.75.267.688-.201 1.25-.886 1.25-1.522 0-1.482 26.158-27.629 27.641-27.629.613 0 1.674-.675 2.359-1.5s2.202-1.507 3.372-1.515c1.171-.009 2.803-.459 3.628-1 1.305-.857 1.312-1.106.048-1.919-.799-.514-1.781-.731-2.182-.483-.402.248-.918-.794-1.148-2.316-.23-1.522-.486-2.132-.568-1.355" fill="#27485f" fill-rule="evenodd"/>
</svg>
